<svg height="500pt" viewBox="0 -37 500.696 500" width="500pt" xmlns="http://www.w3.org/2000/svg"><g fill="#f0bc5e"><path d="m211.070312 232.453125c10.113282-9.953125 23.96875-16.105469 39.273438-16.105469s29.160156 6.152344 39.273438 16.105469c.277343-1.105469.460937-2.136719.863281-3.3125l16.09375-52.335937-33.613281-176.457032h-45.234376l-33.238281 174.496094-.367187 1.953125 16.09375 52.335937c.402344 1.183594.578125 2.214844.855468 3.320313zm0 0"/><path d="m194.34375 272.347656c0-4.9375.703125-9.695312 1.902344-14.246094-1.335938.390626-2.660156.789063-4.132813 1.09375l-54.082031 12.066407-138.03125 115.949219 23 38.800781 171.792969-58.3125 37.800781-39.605469c.832031-.730469 1.664062-1.28125 2.496094-1.90625-23.503906-6.65625-40.746094-28.207031-40.746094-53.839844zm0 0"/><path d="m362.65625 271.253906-54.082031-12.066406c-1.46875-.304688-2.796875-.703125-4.132813-1.09375 1.199219 4.558594 1.902344 9.316406 1.902344 14.253906 0 25.632813-17.238281 47.183594-40.734375 53.839844.832031.625 1.664063 1.175781 2.496094 1.90625l37.796875 39.605469 171.792968 58.3125 23-38.800781zm0 0"/></g><path d="m314.34375 272.347656c0-32.574218-24.480469-59.488281-56-63.449218v-80.550782h-16v80.550782c-31.519531 3.960937-56 30.875-56 63.449218 0 8.519532 1.703125 16.632813 4.734375 24.074219l-71.140625 39.988281 7.839844 13.953125 71.191406-40.015625c11.671875 15.738282 30.328125 26 51.375 26s39.703125-10.261718 51.375-26l71.191406 40.015625 7.84375-13.953125-71.144531-39.988281c3.03125-7.441406 4.734375-15.554687 4.734375-24.074219zm-64 48c-26.472656 0-48-21.527344-48-48s21.527344-48 48-48 48 21.527344 48 48-21.527344 48-48 48zm0 0"/><path d="m250.34375 240.347656c-17.648438 0-32 14.351563-32 32 0 17.648438 14.351562 32 32 32s32-14.351562 32-32c0-17.648437-14.351562-32-32-32zm0 48c-8.824219 0-16-7.175781-16-16 0-8.824218 7.175781-16 16-16s16 7.175782 16 16c0 8.824219-7.175781 16-16 16zm0 0"/><path d="m242.34375 32.347656h16v48h-16zm0 0"/><path d="m35.609375 383.832031 42.160156-23.703125 7.847657 13.957032-42.164063 23.699218zm0 0"/><path d="m415.046875 374.074219 7.84375-13.953125 42.164063 23.699218-7.84375 13.953126zm0 0"/></svg>