<?xml version="1.0" encoding="UTF-8" standalone="no"?>
<svg
   xmlns:dc="http://purl.org/dc/elements/1.1/"
   xmlns:cc="http://creativecommons.org/ns#"
   xmlns:rdf="http://www.w3.org/1999/02/22-rdf-syntax-ns#"
   xmlns:svg="http://www.w3.org/2000/svg"
   xmlns="http://www.w3.org/2000/svg"
   viewBox="0 0 501.33334 487.86533"
   height="487.86533"
   width="501.33334"
   xml:space="preserve"
   id="svg2"
   version="1.1"><metadata
     id="metadata8"><rdf:RDF><cc:Work
         rdf:about=""><dc:format>image/svg+xml</dc:format><dc:type
           rdf:resource="http://purl.org/dc/dcmitype/StillImage" /></cc:Work></rdf:RDF></metadata><defs
     id="defs6"><clipPath
       id="clipPath18"
       clipPathUnits="userSpaceOnUse"><path
         id="path16"
         d="M 0,365.899 H 376 V 0 H 0 Z" /></clipPath></defs><g
     transform="matrix(1.3333333,0,0,-1.3333333,0,487.86533)"
     id="g10"><g
       id="g12"><g
         clip-path="url(#clipPath18)"
         id="g14"><g
           transform="translate(187.9101,239.899)"
           id="g20"><path
             id="path22"
             style="fill:#ffc107;fill-opacity:1;fill-rule:nonzero;stroke:none"
             d="M 0,0 H 119.512 L -22.75,27.531 -52.551,0 h 27.961 c 3.313,0 6,-2.684 6,-6 H -6 c 0,3.316 2.684,6 6,6" /></g><g
           transform="translate(307.4221,227.899)"
           id="g24"><path
             id="path26"
             style="fill:#ffc107;fill-opacity:1;fill-rule:nonzero;stroke:none"
             d="m 0,0 h -119.512 c -3.316,0 -6,2.687 -6,6 0,0.004 -12.59,0.004 -12.59,0.004 0,-3.317 -2.687,-6.004 -6,-6.004 h -27.961 l 29.801,-27.532 z" /></g><g
           transform="translate(168.0782,279.09)"
           id="g28"><path
             id="path30"
             style="fill:#000000;fill-opacity:1;fill-rule:nonzero;stroke:none"
             d="M 0,0 -19.64,68.688 165.074,-31.949 Z M -19.64,-159.07 0,-90.383 l 165.074,31.95 z m -13.079,107.879 h 27.961 c 3.313,0 6,2.687 6,6 0,3.316 -2.687,6 -6,6 H -32.719 L -2.918,-11.66 139.344,-39.191 H 19.832 c -3.312,0 -6,-2.684 -6,-5.996 0,-3.317 2.684,-6.004 6,-6.004 H 139.344 L -2.918,-78.723 Z m 240.625,6.34 c -0.004,0.078 -0.004,0.156 -0.011,0.234 -0.004,0.019 -0.004,0.035 -0.004,0.055 -0.008,0.046 -0.016,0.093 -0.02,0.144 -0.008,0.047 -0.015,0.09 -0.023,0.137 -0.004,0.031 -0.012,0.066 -0.016,0.098 -0.008,0.046 -0.012,0.089 -0.019,0.132 -0.008,0.043 -0.012,0.063 -0.016,0.082 -0.02,0.098 -0.047,0.192 -0.074,0.286 -0.012,0.046 -0.024,0.101 -0.039,0.148 -0.008,0.031 -0.012,0.062 -0.024,0.094 -0.004,0.015 -0.008,0.035 -0.015,0.05 -0.012,0.047 -0.032,0.09 -0.051,0.137 -0.024,0.078 -0.055,0.156 -0.082,0.231 -0.02,0.05 -0.035,0.101 -0.055,0.148 -0.043,0.106 -0.094,0.203 -0.144,0.301 -0.036,0.078 -0.071,0.164 -0.114,0.238 -0.023,0.047 -0.054,0.09 -0.078,0.133 -0.035,0.059 -0.062,0.105 -0.094,0.152 -0.105,0.176 -0.222,0.344 -0.347,0.508 -0.024,0.031 -0.047,0.067 -0.074,0.098 -0.141,0.176 -0.286,0.344 -0.442,0.5 -0.015,0.012 -0.031,0.027 -0.047,0.043 -0.031,0.027 -0.066,0.058 -0.097,0.086 -0.149,0.14 -0.305,0.273 -0.465,0.394 -0.047,0.039 -0.094,0.074 -0.145,0.11 -0.144,0.101 -0.297,0.199 -0.449,0.293 -0.062,0.035 -0.125,0.078 -0.187,0.109 -0.032,0.016 -231.25,125.988 -231.25,125.988 -2.122,1.156 -4.731,0.926 -6.618,-0.586 -1.89,-1.511 -2.683,-4.008 -2.019,-6.332 l 23.57,-82.449 -40.586,-37.496 c -0.023,-0.023 -0.047,-0.051 -0.074,-0.074 -0.082,-0.082 -0.164,-0.168 -0.246,-0.254 -0.055,-0.063 -0.113,-0.121 -0.164,-0.184 -0.082,-0.094 -0.156,-0.191 -0.231,-0.289 -0.043,-0.058 -0.093,-0.117 -0.132,-0.18 -0.079,-0.113 -0.149,-0.23 -0.219,-0.347 -0.031,-0.051 -0.067,-0.102 -0.098,-0.156 -0.078,-0.137 -0.144,-0.282 -0.211,-0.426 -0.015,-0.035 -0.039,-0.071 -0.054,-0.11 -0.071,-0.168 -0.137,-0.339 -0.196,-0.515 -0.004,-0.016 -0.012,-0.031 -0.015,-0.047 -0.063,-0.191 -0.114,-0.387 -0.157,-0.586 -0.043,-0.203 -0.074,-0.406 -0.093,-0.609 -0.024,-0.211 -0.036,-0.418 -0.036,-0.629 0,-0.211 0.012,-0.418 0.036,-0.621 0.019,-0.211 0.05,-0.414 0.093,-0.614 0.043,-0.203 0.098,-0.398 0.157,-0.59 0.003,-0.015 0.011,-0.031 0.019,-0.05 0.055,-0.172 0.121,-0.348 0.192,-0.512 0.015,-0.039 0.039,-0.074 0.054,-0.113 0.067,-0.145 0.137,-0.285 0.211,-0.422 0.031,-0.055 0.067,-0.106 0.098,-0.156 0.07,-0.118 0.14,-0.235 0.219,-0.348 0.043,-0.059 0.089,-0.117 0.136,-0.18 0.074,-0.097 0.149,-0.195 0.227,-0.289 0.055,-0.062 0.109,-0.121 0.168,-0.183 0.078,-0.086 0.16,-0.172 0.246,-0.254 0.023,-0.024 0.047,-0.051 0.074,-0.075 l 40.586,-37.496 -23.574,-82.449 c -0.664,-2.324 0.129,-4.82 2.019,-6.332 1.086,-0.871 2.414,-1.316 3.75,-1.316 0.985,0 1.969,0.242 2.868,0.73 l 231.214,125.973 c 0.059,0.031 0.082,0.047 0.106,0.058 0.07,0.039 0.14,0.086 0.211,0.129 0.086,0.051 0.168,0.102 0.25,0.157 0.039,0.027 0.074,0.054 0.113,0.082 0.047,0.035 0.09,0.066 0.137,0.101 0.109,0.086 0.215,0.172 0.32,0.262 0.07,0.062 0.145,0.125 0.211,0.191 0.024,0.02 0.031,0.032 0.043,0.039 0.047,0.047 0.09,0.098 0.133,0.145 0.086,0.086 0.168,0.176 0.246,0.269 0.012,0.016 0.027,0.028 0.043,0.047 0.016,0.02 0.031,0.043 0.047,0.063 0.023,0.031 0.047,0.058 0.07,0.09 0.059,0.078 0.117,0.156 0.176,0.238 0.039,0.055 0.074,0.113 0.113,0.172 0.039,0.062 0.082,0.121 0.121,0.183 0.028,0.055 0.043,0.082 0.055,0.106 0.039,0.066 0.074,0.133 0.109,0.199 0.051,0.094 0.094,0.191 0.141,0.285 0.031,0.078 0.066,0.153 0.098,0.231 0.039,0.09 0.07,0.179 0.101,0.269 0.004,0.016 0.008,0.028 0.012,0.039 0.019,0.051 0.039,0.094 0.055,0.141 0.007,0.031 0.011,0.059 0.023,0.09 0.008,0.027 0.016,0.054 0.023,0.086 0.012,0.031 0.016,0.07 0.028,0.105 0.004,0.012 0.004,0.028 0.008,0.043 0.023,0.086 0.046,0.168 0.066,0.254 0.004,0.02 0.008,0.039 0.012,0.063 0.011,0.066 0.015,0.109 0.023,0.152 0.004,0.035 0.012,0.066 0.016,0.101 0.008,0.047 0.015,0.094 0.023,0.137 0.004,0.051 0.012,0.098 0.02,0.145 0,0.015 0,0.035 0.004,0.054 0.004,0.079 0.007,0.157 0.011,0.235 0.008,0.101 0.016,0.211 0.016,0.316 0,0.149 -0.008,0.254 -0.016,0.36" /></g><g
           transform="translate(94.5201,236.012)"
           id="g32"><path
             id="path34"
             style="fill:#ffc107;fill-opacity:1;fill-rule:nonzero;stroke:none"
             d="m 0,0 c -4.09,-1.055 -8.18,-2.336 -12.153,-3.805 -3.105,-1.148 -4.695,-4.597 -3.547,-7.707 0.899,-2.422 3.188,-3.922 5.629,-3.922 0.692,0 1.395,0.121 2.082,0.375 3.59,1.329 7.285,2.485 10.985,3.438 3.211,0.828 5.14,4.101 4.312,7.308 C 6.48,-1.105 3.21,0.828 0,0 m 112.832,-158.195 c -3.149,1.031 -6.536,-0.696 -7.563,-3.844 -1.168,-3.594 -2.582,-7.149 -4.199,-10.563 -1.418,-2.996 -0.141,-6.574 2.855,-7.992 0.828,-0.39 1.703,-0.578 2.563,-0.578 2.246,0 4.402,1.27 5.426,3.438 1.836,3.875 3.437,7.902 4.765,11.976 1.028,3.153 -0.695,6.539 -3.847,7.563 m -15.528,-32.758 c -2.547,2.117 -6.328,1.773 -8.449,-0.774 -2.422,-2.906 -5.047,-5.683 -7.813,-8.265 -2.421,-2.262 -2.55,-6.059 -0.292,-8.481 1.183,-1.265 2.785,-1.906 4.39,-1.906 1.465,0 2.934,0.535 4.09,1.617 3.129,2.918 6.105,6.067 8.844,9.356 2.125,2.547 1.777,6.332 -0.77,8.453 M 62.55,-213.098 c -3.308,-1.804 -6.765,-3.414 -10.273,-4.785 -3.086,-1.207 -4.609,-4.687 -3.402,-7.773 0.925,-2.367 3.191,-3.817 5.589,-3.817 0.727,0 1.465,0.133 2.184,0.414 3.977,1.555 7.894,3.379 11.648,5.426 2.911,1.586 3.985,5.231 2.395,8.141 -1.586,2.91 -5.227,3.98 -8.141,2.394 m -32.218,-10.281 c -3.543,-0.418 -7.161,-0.633 -10.754,-0.633 -3.313,0 -6,-2.687 -6,-6 0,-3.316 2.687,-6 6,-6 4.062,0 8.16,0.242 12.172,0.719 3.289,0.391 5.64,3.375 5.25,6.664 -0.395,3.293 -3.375,5.645 -6.668,5.25 m -97.528,47.438 c -1.75,2.812 -5.449,3.675 -8.262,1.925 -2.816,-1.75 -3.679,-5.449 -1.929,-8.261 2.242,-3.61 4.719,-7.129 7.351,-10.469 1.184,-1.5 2.942,-2.285 4.715,-2.285 1.301,0 2.613,0.422 3.711,1.293 2.602,2.05 3.047,5.824 0.992,8.425 -2.355,2.989 -4.57,6.141 -6.578,9.372 m 31.961,-32.325 c -3.215,2.047 -6.34,4.297 -9.301,6.688 -2.578,2.086 -6.351,1.683 -8.437,-0.895 -2.082,-2.578 -1.68,-6.355 0.898,-8.437 3.305,-2.672 6.797,-5.184 10.387,-7.473 1,-0.64 2.117,-0.945 3.219,-0.945 1.98,0 3.922,0.98 5.066,2.777 1.781,2.793 0.961,6.5 -1.832,8.285 m 31.52,-13.281 c -3.703,0.863 -7.399,1.953 -10.989,3.231 -3.121,1.109 -6.55,-0.516 -7.664,-3.641 -1.113,-3.121 0.516,-6.551 3.637,-7.664 4.016,-1.43 8.149,-2.645 12.289,-3.609 0.457,-0.11 0.918,-0.161 1.367,-0.161 2.727,0 5.192,1.871 5.84,4.641 0.75,3.227 -1.254,6.453 -4.48,7.203 m -31.262,206.559 c -3.586,-2.235 -7.105,-4.676 -10.453,-7.262 -2.621,-2.023 -3.106,-5.793 -1.082,-8.418 1.183,-1.531 2.961,-2.332 4.754,-2.332 1.281,0 2.57,0.41 3.664,1.25 3.031,2.344 6.211,4.551 9.457,6.574 2.812,1.75 3.676,5.449 1.922,8.262 -1.75,2.816 -5.45,3.676 -8.262,1.926 m -20.449,-24.117 c -2.508,2.167 -6.297,1.886 -8.461,-0.622 -2.766,-3.199 -5.399,-6.578 -7.828,-10.035 -1.903,-2.715 -1.246,-6.457 1.465,-8.359 1.05,-0.734 2.253,-1.09 3.441,-1.09 1.891,0 3.75,0.891 4.918,2.555 2.199,3.133 4.582,6.187 7.086,9.086 2.164,2.507 1.887,6.297 -0.621,8.465 M -84.719,-91.41 c 0.605,-0.192 1.219,-0.285 1.82,-0.285 2.543,0 4.906,1.632 5.715,4.183 1.164,3.657 2.523,7.285 4.047,10.782 1.316,3.042 -0.074,6.574 -3.113,7.894 -3.04,1.32 -6.575,-0.07 -7.895,-3.109 -1.684,-3.875 -3.187,-7.887 -4.473,-11.93 -1.004,-3.156 0.743,-6.531 3.899,-7.535 m -3.801,-36.098 c 3.301,0 5.984,2.668 6,5.969 0.02,3.844 0.23,7.715 0.629,11.508 0.348,3.297 -2.043,6.246 -5.336,6.593 -3.289,0.352 -6.25,-2.042 -6.598,-5.339 -0.441,-4.188 -0.672,-8.461 -0.695,-12.7 -0.016,-3.316 2.656,-6.015 6,-6.031 m 11.512,-27.789 c -1.235,3.594 -2.278,7.301 -3.102,11.016 -0.715,3.234 -3.926,5.277 -7.152,4.562 -3.238,-0.719 -5.281,-3.918 -4.563,-7.156 0.918,-4.156 2.086,-8.301 3.469,-12.32 0.856,-2.489 3.18,-4.051 5.672,-4.051 0.648,0 1.305,0.105 1.949,0.324 3.137,1.078 4.801,4.492 3.727,7.625" /></g></g></g></g></svg>