<?xml version="1.0" encoding="UTF-8" standalone="no"?>
<svg
   xmlns:dc="http://purl.org/dc/elements/1.1/"
   xmlns:cc="http://creativecommons.org/ns#"
   xmlns:rdf="http://www.w3.org/1999/02/22-rdf-syntax-ns#"
   xmlns:svg="http://www.w3.org/2000/svg"
   xmlns="http://www.w3.org/2000/svg"
   viewBox="0 0 443.84 507.94534"
   height="507.94534"
   width="443.84"
   xml:space="preserve"
   id="svg2"
   version="1.1"><metadata
     id="metadata8"><rdf:RDF><cc:Work
         rdf:about=""><dc:format>image/svg+xml</dc:format><dc:type
           rdf:resource="http://purl.org/dc/dcmitype/StillImage" /></cc:Work></rdf:RDF></metadata><defs
     id="defs6"><clipPath
       id="clipPath18"
       clipPathUnits="userSpaceOnUse"><path
         id="path16"
         d="M 0,380.959 H 332.88 V 0 H 0 Z" /></clipPath><clipPath
       id="clipPath46"
       clipPathUnits="userSpaceOnUse"><path
         id="path44"
         d="M 0,0 H 332.88 V 380.88 H 0 Z" /></clipPath><clipPath
       id="clipPath62"
       clipPathUnits="userSpaceOnUse"><path
         id="path60"
         d="M 0,380.959 H 332.88 V 0 H 0 Z" /></clipPath></defs><g
     transform="matrix(1.3333333,0,0,-1.3333333,0,507.94533)"
     id="g10"><g
       id="g12"><g
         clip-path="url(#clipPath18)"
         id="g14"><g
           transform="translate(100.379,143.822)"
           id="g20"><path
             id="path22"
             style="fill:#ffc107;fill-opacity:1;fill-rule:nonzero;stroke:none"
             d="M 0,0 C -5.516,0 -10,-4.484 -10,-10 V -136.863 H 10 V -10 C 10,-4.484 5.512,0 0,0" /></g><g
           transform="translate(166.188,143.822)"
           id="g24"><path
             id="path26"
             style="fill:#ffc107;fill-opacity:1;fill-rule:nonzero;stroke:none"
             d="M 0,0 C -5.516,0 -10,-4.484 -10,-10 V -136.863 H 10 V -10 C 10,-4.484 5.511,0 0,0" /></g><g
           transform="translate(247.996,91.822)"
           id="g28"><path
             id="path30"
             style="fill:#ffc107;fill-opacity:1;fill-rule:nonzero;stroke:none"
             d="M 0,0 C 0.004,0 0.004,12 0.004,12 -3.312,12 -6,14.688 -6,18 v 24 c 0,5.516 -4.484,10 -10,10 -5.516,0 -10,-4.484 -10,-10 V -84.863 H -6 V -6 c 0,3.313 2.688,6 6,6" /></g><g
           transform="translate(80.566,245.822)"
           id="g32"><path
             id="path34"
             style="fill:#ffc107;fill-opacity:1;fill-rule:nonzero;stroke:none"
             d="M 0,0 C 0,-3.312 -2.683,-6 -6,-6 H -24 V -26 H 195.239 V -6 H 18 c -3.312,0 -6,2.688 -6,6 z" /></g><g
           transform="translate(50.566,344.959)"
           id="g36"><path
             id="path38"
             style="fill:#ffc107;fill-opacity:1;fill-rule:nonzero;stroke:none"
             d="m 0,0 c -8.031,0 -14.566,-6.535 -14.566,-14.566 0,-8.035 6.535,-14.571 14.566,-14.571 8.036,0 14.571,6.536 14.571,14.571 0,3.015 2.226,5.504 5.129,5.929 C 17.715,-2.047 12.52,3.149 5.93,5.129 5.508,2.231 3.02,0 0,0" /></g></g></g><g
       id="g40"><g
         clip-path="url(#clipPath46)"
         id="g42"><g
           transform="translate(267.238,330.393)"
           id="g48"><path
             id="path50"
             style="fill:#ffc107;fill-opacity:1;fill-rule:nonzero;stroke:none"
             d="m 0,0 c 0,-8.035 6.535,-14.571 14.567,-14.571 8.035,0 14.57,6.536 14.57,14.571 0,8.031 -6.535,14.566 -14.57,14.566 -3.016,0 -5.504,2.231 -5.93,5.129 C 2.047,17.715 -3.148,12.519 -5.129,5.929 -2.23,5.504 0,3.015 0,0" /></g><g
           transform="translate(281.805,368.959)"
           id="g52"><path
             id="path54"
             style="fill:#000000;fill-opacity:1;fill-rule:nonzero;stroke:none"
             d="m 0,0 c 21.269,0 38.57,-17.301 38.57,-38.566 0,-21.266 -17.301,-38.571 -38.57,-38.571 -21.266,0 -38.567,17.305 -38.567,38.571 0,6.281 1.461,12.269 4.34,17.797 1.531,2.937 0.391,6.562 -2.547,8.093 -2.937,1.532 -6.562,0.391 -8.093,-2.55 -3.731,-7.153 -5.7,-15.223 -5.7,-23.34 0,-25.856 19.504,-47.223 44.567,-50.203 v -28.368 h -177.239 c -3.312,0 -5.996,-2.683 -6,-6 0,-3.312 2.688,-6 6,-6 H -6 v -20 h -219.239 v 20 h 18 c 3.317,0 6,2.688 6,6 0,3.317 -2.683,6 -6,6 h -18 v 28.368 c 25.067,2.98 44.571,24.347 44.571,50.203 0,8.113 -1.973,16.187 -5.699,23.34 -1.536,2.941 -5.157,4.082 -8.094,2.55 -2.942,-1.531 -4.082,-5.156 -2.551,-8.093 2.883,-5.528 4.344,-11.516 4.344,-17.797 0,-21.266 -17.305,-38.571 -38.571,-38.571 -21.265,0 -38.566,17.305 -38.566,38.571 0,21.265 17.301,38.566 38.566,38.566 z m 0,-181.137 h -231.239 c -5.511,0 -10,4.485 -10,10 0,5.516 4.489,10 10,10 H 0 c 5.515,0 10,-4.484 10,-10 0,-5.515 -4.485,-10 -10,-10 m 6,92.368 c 25.066,2.98 44.57,24.347 44.57,50.203 C 50.57,-10.683 27.886,12 0,12 h -231.239 c -27.882,0 -50.566,-22.683 -50.566,-50.566 0,-25.856 19.504,-47.223 44.566,-50.203 v -61.203 c -9.222,-2.622 -16,-11.114 -16,-21.165 0,-10.05 6.778,-18.542 16,-21.16 V -362 c 0,-3.312 2.688,-6 6,-6 3.317,0 6,2.688 6,6 v 168.863 H -6 V -362 c 0,-3.312 2.687,-6 6,-6 3.316,0 6,2.688 6,6 v 169.703 c 9.222,2.618 16,11.11 16,21.16 0,10.051 -6.778,18.543 -16,21.165 z" /></g></g></g><g
       id="g56"><g
         clip-path="url(#clipPath62)"
         id="g58"><g
           transform="translate(100.379,155.822)"
           id="g64"><path
             id="path66"
             style="fill:#000000;fill-opacity:1;fill-rule:nonzero;stroke:none"
             d="m 0,0 c -12.133,0 -22,-9.867 -22,-22 v -126.863 c 0,-3.312 2.683,-6 6,-6 3.312,0 6,2.688 6,6 V -22 c 0,5.516 4.484,10 10,10 5.512,0 10,-4.484 10,-10 v -126.863 c 0,-3.312 2.683,-6 6,-6 3.312,0 6,2.688 6,6 V -22 C 22,-9.867 12.129,0 0,0" /></g><g
           transform="translate(166.188,155.822)"
           id="g68"><path
             id="path70"
             style="fill:#000000;fill-opacity:1;fill-rule:nonzero;stroke:none"
             d="m 0,0 c -12.133,0 -22,-9.867 -22,-22 v -126.863 c 0,-3.312 2.687,-6 6,-6 3.312,0 6,2.688 6,6 V -22 c 0,5.516 4.484,10 10,10 5.515,0 10,-4.484 10,-10 v -126.863 c 0,-3.312 2.687,-6 6,-6 3.312,0 6,2.688 6,6 V -22 C 22,-9.867 12.128,0 0,0" /></g><g
           transform="translate(231.996,143.822)"
           id="g72"><path
             id="path74"
             style="fill:#000000;fill-opacity:1;fill-rule:nonzero;stroke:none"
             d="m 0,0 c 5.516,0 10,-4.484 10,-10 v -24 c 0,-3.312 2.688,-6 6,-6 3.316,0.004 6,2.688 6,6 v 24 C 22,2.133 12.133,12 0,12 -12.129,12 -22,2.133 -22,-10 v -126.863 c 0,-3.312 2.688,-6 6,-6 3.313,0 6,2.688 6,6 V -10 c 0,5.516 4.484,10 10,10" /></g><g
           transform="translate(248,91.822)"
           id="g76"><path
             id="path78"
             style="fill:#000000;fill-opacity:1;fill-rule:nonzero;stroke:none"
             d="m 0,0 c -3.316,0 -6.004,-2.687 -6.004,-6 v -78.863 c 0,-3.312 2.688,-6 6,-6 3.313,0 6,2.688 6,6 V -6 C 5.996,-2.687 3.312,0 0,0" /></g><g
           transform="translate(50.566,303.822)"
           id="g80"><path
             id="path82"
             style="fill:#000000;fill-opacity:1;fill-rule:nonzero;stroke:none"
             d="m 0,0 c 14.653,0 26.571,11.918 26.571,26.571 0,3.312 -2.688,6 -6,6 C 20.274,32.571 19.985,32.54 19.7,32.5 16.797,32.075 14.571,29.586 14.571,26.571 14.571,18.536 8.036,12 0,12 c -8.031,0 -14.566,6.536 -14.566,14.571 0,8.031 6.535,14.566 14.566,14.566 3.02,0 5.508,2.231 5.93,5.129 0.043,0.285 0.07,0.574 0.07,0.871 0,3.313 -2.683,6 -6,6 -14.648,0 -26.566,-11.918 -26.566,-26.566 C -26.566,11.918 -14.648,0 0,0" /></g><g
           transform="translate(281.805,303.822)"
           id="g84"><path
             id="path86"
             style="fill:#000000;fill-opacity:1;fill-rule:nonzero;stroke:none"
             d="m 0,0 c 14.652,0 26.57,11.918 26.57,26.571 0,14.648 -11.918,26.566 -26.57,26.566 -3.313,0 -6,-2.687 -6,-6 0,-0.297 0.031,-0.586 0.07,-0.871 0.426,-2.898 2.914,-5.129 5.93,-5.129 8.035,0 14.57,-6.535 14.57,-14.566 C 14.57,18.536 8.035,12 0,12 c -8.032,0 -14.567,6.536 -14.567,14.571 0,3.015 -2.23,5.504 -5.129,5.929 -0.285,0.04 -0.574,0.071 -0.871,0.071 -3.312,0 -6,-2.688 -6,-6 C -26.567,11.918 -14.649,0 0,0" /></g><g
           transform="translate(119.137,324.393)"
           id="g88"><path
             id="path90"
             style="fill:#000000;fill-opacity:1;fill-rule:nonzero;stroke:none"
             d="m 0,0 h 94.101 c 3.313,0 6,2.687 6,6 0,3.312 -2.687,6 -6,6 H 0 C -3.313,12 -6,9.312 -6,6 -6,2.687 -3.313,0 0,0" /></g></g></g></g></svg>