<?xml version="1.0" encoding="UTF-8" standalone="no"?>
<svg
   xmlns:dc="http://purl.org/dc/elements/1.1/"
   xmlns:cc="http://creativecommons.org/ns#"
   xmlns:rdf="http://www.w3.org/1999/02/22-rdf-syntax-ns#"
   xmlns:svg="http://www.w3.org/2000/svg"
   xmlns="http://www.w3.org/2000/svg"
   viewBox="0 0 502.39999 503.67999"
   height="503.67999"
   width="502.39999"
   xml:space="preserve"
   id="svg2"
   version="1.1"><metadata
     id="metadata8"><rdf:RDF><cc:Work
         rdf:about=""><dc:format>image/svg+xml</dc:format><dc:type
           rdf:resource="http://purl.org/dc/dcmitype/StillImage" /></cc:Work></rdf:RDF></metadata><defs
     id="defs6"><clipPath
       id="clipPath18"
       clipPathUnits="userSpaceOnUse"><path
         id="path16"
         d="M 0,377.76 H 376.8 V 0 H 0 Z" /></clipPath><clipPath
       id="clipPath30"
       clipPathUnits="userSpaceOnUse"><path
         id="path28"
         d="M 0,0 H 376.8 V 377.76 H 0 Z" /></clipPath><clipPath
       id="clipPath46"
       clipPathUnits="userSpaceOnUse"><path
         id="path44"
         d="M 0,377.76 H 376.8 V 0 H 0 Z" /></clipPath><clipPath
       id="clipPath66"
       clipPathUnits="userSpaceOnUse"><path
         id="path64"
         d="M 0,0 H 376.8 V 377.76 H 0 Z" /></clipPath></defs><g
     transform="matrix(1.3333333,0,0,-1.3333333,0,503.68)"
     id="g10"><g
       id="g12"><g
         clip-path="url(#clipPath18)"
         id="g14"><g
           transform="translate(72.469,304.491)"
           id="g20"><path
             id="path22"
             style="fill:#000000;fill-opacity:1;fill-rule:nonzero;stroke:none"
             d="m 0,0 c -1.133,-1.132 -2.641,-1.757 -4.242,-1.757 -1.606,0 -3.11,0.625 -4.243,1.757 -2.339,2.34 -2.339,6.149 -0.004,8.485 1.137,1.137 2.641,1.758 4.247,1.758 1.601,0 3.109,-0.621 4.242,-1.754 C 2.34,6.149 2.34,2.34 0,0 m -4.242,22.243 c -4.809,0 -9.329,-1.871 -12.727,-5.27 -7.02,-7.019 -7.02,-18.437 0,-25.457 3.398,-3.398 7.918,-5.273 12.727,-5.273 4.808,0 9.328,1.875 12.726,5.273 7.02,7.02 7.02,18.438 0,25.457 -3.398,3.399 -7.918,5.27 -12.726,5.27" /></g></g></g><g
       id="g24"><g
         clip-path="url(#clipPath30)"
         id="g26"><g
           transform="translate(303.531,73.429)"
           id="g32"><path
             id="path34"
             style="fill:#000000;fill-opacity:1;fill-rule:nonzero;stroke:none"
             d="m 0,0 c 1.137,1.133 2.641,1.758 4.246,1.758 1.602,0 3.11,-0.625 4.243,-1.758 2.339,-2.34 2.339,-6.149 0,-8.484 -1.133,-1.137 -2.641,-1.758 -4.243,-1.758 -1.605,0 -3.109,0.621 -4.242,1.754 C -2.336,-6.149 -2.336,-2.34 0,0 m 4.246,-22.242 c 4.805,0 9.325,1.871 12.727,5.273 7.016,7.016 7.016,18.438 0,25.453 -3.402,3.399 -7.922,5.274 -12.727,5.274 -4.808,0 -9.328,-1.875 -12.73,-5.274 -7.016,-7.015 -7.016,-18.437 0,-25.457 3.402,-3.398 7.922,-5.269 12.73,-5.269" /></g><g
           transform="translate(110.219,201.691)"
           id="g36"><path
             id="path38"
             style="fill:#000000;fill-opacity:1;fill-rule:nonzero;stroke:none"
             d="M 0,0 -95.735,95.73 -30.68,160.785 11.746,118.359 -6.637,99.972 c -2.344,-2.343 -2.344,-6.14 0,-8.484 1.172,-1.172 2.707,-1.758 4.242,-1.758 1.535,0 3.071,0.586 4.242,1.758 L 20.234,109.871 36.277,93.824 17.894,75.441 c -2.343,-2.344 -2.343,-6.141 0,-8.484 1.172,-1.172 2.707,-1.758 4.242,-1.758 1.536,0 3.075,0.586 4.247,1.758 L 44.765,85.339 60.812,69.293 42.426,50.91 c -2.34,-2.344 -2.34,-6.141 0,-8.485 1.171,-1.171 2.71,-1.757 4.246,-1.757 1.535,0 3.07,0.586 4.242,1.757 L 73.543,65.05 c 2.34,2.344 2.34,6.145 0,8.489 l -99.981,99.972 c -2.343,2.344 -6.14,2.344 -8.484,0 l -73.539,-73.539 c -2.344,-2.343 -2.344,-6.14 0,-8.484 L -8.485,-8.489 c 1.172,-1.172 2.707,-1.757 4.243,-1.757 1.535,0 3.07,0.585 4.242,1.757 2.343,2.344 2.343,6.141 0,8.489" /></g></g></g><g
       id="g40"><g
         clip-path="url(#clipPath46)"
         id="g42"><g
           transform="translate(274.27,184.718)"
           id="g48"><path
             id="path50"
             style="fill:#000000;fill-opacity:1;fill-rule:nonzero;stroke:none"
             d="m 0,0 c -2.344,2.344 -6.141,2.344 -8.489,0 l -22.625,-22.625 c -2.344,-2.348 -2.344,-6.145 0,-8.488 1.172,-1.172 2.707,-1.758 4.242,-1.758 1.536,0 3.071,0.586 4.243,1.758 L -4.243,-12.727 11.804,-28.773 -6.582,-47.16 c -2.344,-2.344 -2.344,-6.141 0,-8.485 1.171,-1.171 2.71,-1.757 4.246,-1.757 1.535,0 3.07,0.586 4.242,1.757 l 18.383,18.383 16.046,-16.047 -18.386,-18.382 c -2.34,-2.344 -2.34,-6.141 0,-8.485 1.176,-1.172 2.711,-1.758 4.246,-1.758 1.535,0 3.07,0.586 4.242,1.758 l 18.383,18.383 42.43,-42.426 -65.055,-65.054 -95.735,95.734 c -2.343,2.344 -6.144,2.344 -8.488,0 -2.34,-2.344 -2.34,-6.141 0,-8.484 L 17.949,-182 c 1.172,-1.172 2.711,-1.758 4.246,-1.758 1.535,0 3.07,0.586 4.242,1.758 l 73.539,73.539 c 2.344,2.344 2.344,6.141 0,8.484 z" /></g><g
           transform="translate(285.352,277.823)"
           id="g52"><path
             id="path54"
             style="fill:#ffc107;fill-opacity:1;fill-rule:nonzero;stroke:none"
             d="m 0,0 -24.043,-24.039 c -1.172,-1.171 -2.707,-1.757 -4.243,-1.757 -1.535,0 -3.07,0.586 -4.242,1.757 -2.344,2.344 -2.344,6.141 0,8.485 L -8.489,8.489 -28.286,28.286 -229.2,-172.628 c 2.754,-1.614 5.325,-3.59 7.625,-5.891 4.703,-4.703 7.977,-10.41 9.625,-16.457 l 156.797,156.793 c 2.344,2.344 6.141,2.344 8.485,0 2.343,-2.344 2.343,-6.141 0,-8.485 L -203.465,-203.46 c 6.047,-1.649 11.754,-4.926 16.457,-9.629 2.301,-2.301 4.277,-4.868 5.89,-7.621 L 19.796,-19.796 Z" /></g><g
           transform="translate(24.621,36.421)"
           id="g56"><path
             id="path58"
             style="fill:#ffc107;fill-opacity:1;fill-rule:nonzero;stroke:none"
             d="m 0,0 -7.59,-18.43 18.43,7.59 z" /></g></g></g><g
       id="g60"><g
         clip-path="url(#clipPath66)"
         id="g62"><g
           transform="translate(24.621,36.421)"
           id="g68"><path
             id="path70"
             style="fill:#000000;fill-opacity:1;fill-rule:nonzero;stroke:none"
             d="m 0,0 10.84,-10.84 -18.43,-7.59 z m 289.016,230.09 -48.086,48.086 12.597,12.594 48.082,-48.082 z M 73.723,28.313 c -4.703,4.703 -10.41,7.98 -16.457,9.629 l 156.797,156.792 c 2.339,2.344 2.339,6.141 0,8.485 -2.344,2.344 -6.145,2.344 -8.489,0 L 48.781,46.426 c -1.648,6.047 -4.922,11.754 -9.629,16.457 -2.3,2.301 -4.867,4.277 -7.621,5.891 l 200.914,200.914 19.801,-19.797 -24.043,-24.043 c -2.344,-2.344 -2.344,-6.141 0,-8.485 1.172,-1.171 2.707,-1.757 4.242,-1.757 1.536,0 3.071,0.586 4.243,1.757 l 24.043,24.039 19.8,-19.796 L 79.613,20.692 c -1.613,2.753 -3.589,5.32 -5.89,7.621 M 22.863,-5.891 4.949,12.024 24.317,59.051 c 2.308,-1.199 4.46,-2.762 6.351,-4.652 5.672,-5.672 8.297,-13.372 7.027,-20.594 -0.339,-1.93 0.286,-3.899 1.668,-5.285 1.383,-1.383 3.356,-2.004 5.282,-1.664 7.226,1.269 14.922,-1.36 20.593,-7.028 1.895,-1.894 3.457,-4.043 4.653,-6.355 z m 270.387,223.247 49.371,49.371 c 11.699,11.699 11.699,30.73 0,42.429 l -22.625,22.625 c -11.699,11.696 -30.73,11.7 -42.429,0 l -11.313,-11.312 c -2.344,-2.348 -2.344,-6.145 0,-8.488 2.344,-2.34 6.141,-2.34 8.484,0 l 11.317,11.316 c 7.015,7.016 18.437,7.016 25.453,0 l 22.629,-22.629 c 7.015,-7.016 7.015,-18.437 0,-25.453 l -24.043,-24.043 -52.324,52.324 c -2.344,2.344 -6.145,2.344 -8.489,0 L 228.211,282.422 167.621,221.836 16.734,70.949 C 16.723,70.938 16.711,70.922 16.699,70.91 16.649,70.859 16.602,70.805 16.555,70.75 16.082,70.234 15.695,69.641 15.43,68.988 L -7.668,12.899 c -0.008,-0.02 -0.015,-0.04 -0.023,-0.059 l -16.477,-40.016 c -0.922,-2.242 -0.41,-4.816 1.305,-6.527 1.148,-1.148 2.683,-1.758 4.246,-1.758 0.766,0 1.543,0.149 2.281,0.449 l 40.024,16.481 c 0.011,0.008 0.027,0.015 0.043,0.019 L 79.832,4.59 c 0.652,0.269 1.25,0.656 1.77,1.133 0.05,0.047 0.101,0.09 0.148,0.136 0.012,0.012 0.027,0.024 0.039,0.036 l 77.352,77.347 73.539,73.539 z" /></g></g></g></g></svg>