<svg xmlns="http://www.w3.org/2000/svg" xmlns:xlink="http://www.w3.org/1999/xlink" width="1919.229" height="912.069" viewBox="0 0 1919.229 912.069">
  <defs>
    <clipPath id="clip-path">
      <rect width="1919.229" height="912.069" fill="none"/>
    </clipPath>
    <clipPath id="clip-path-2">
      <path id="Clip_2" data-name="Clip 2" d="M0,0H1919.229V912.069H0Z" transform="translate(0 0.931)" fill="none"/>
    </clipPath>
  </defs>
  <g id="Images_Vlasov-Logo" data-name="Images / Vlasov-Logo" clip-path="url(#clip-path)">
    <g id="Group_56" data-name="Group 56" transform="translate(0 -1)">
      <g id="Group_3" data-name="Group 3" transform="translate(0 0.069)">
        <path id="Clip_2-2" data-name="Clip 2" d="M0,0H1919.229V912.069H0Z" transform="translate(0 0.931)" fill="none"/>
        <g id="Group_3-2" data-name="Group 3" clip-path="url(#clip-path-2)">
          <path id="Fill_1" data-name="Fill 1" d="M1917.018,280.594a0,0,0,0,0,0,0,17.535,17.535,0,0,0-15.31-9H520.323c-.524-6.85-.868-13.029-1.026-18.42-1.163-39.538-9.2-60.955-27.925-96.086.018-18.931-12.5-32.018-22.573-40.455l-.01-.026c-.167-.408-.334-.815-.5-1.208l-.067-.155c-.446-1.058-.923-2.138-1.45-3.305l-1.832-3.916c-.2-.4-.385-.784-.505-1.02-11.1-22.372-28.37-44.021-51.346-64.346-7.373-6.523-27.065-22.848-50.634-33.537C338.6-1.7,319.243-2.858,304.926,5.679c-.9.54-1.788,1.119-2.639,1.733A250.34,250.34,0,0,0,244.542,7.2c-.757-.534-1.538-1.041-2.336-1.517C203.673-17.3,141.054,36.452,134.041,42.657a247.81,247.81,0,0,0-33.336,35.552c-19.284,15.7-29.7,28.221-34.781,41.8-5.315,14.2-3.649,27.3-1.967,38.042l-7.453,13.9a22.624,22.624,0,0,0-2.144,15.637c.331,1.478.719,2.935,1.158,4.352a214.5,214.5,0,0,0-11.293,62.006,327.57,327.57,0,0,0-7.456,52.69,7.383,7.383,0,0,1-.544,2.235,179.657,179.657,0,0,0-7.586,25.246c-3.149,1.927-6.686,4.2-10.547,6.764A26.7,26.7,0,0,0,7.483,354.914C3.039,368.83-9.661,417.375,13.519,457.795a25.032,25.032,0,0,0,11.519,10.454l5.028,2.261c2.065,17.019,6.137,44.792,12.327,62.212-.19,10.512-.152,43.64,5.929,90.972-2.76,46.063-6.336,64.649-27.447,115.773C10.29,765.1,6.438,782.458,8.384,795.745a37.4,37.4,0,0,0,14.067,24.337l-2.1,62.783a23.385,23.385,0,0,0,21.675,24.078l41.026,4.992c.575.071,1.16.113,1.73.127.2.005.394.008.591.008a23.391,23.391,0,0,0,23.406-22.994c.157-10,.762-36.439,2.995-68.445,6.883-8.459,12.439-21.163,16.605-37.932,9.122,28.277,23.639,63.013,46.195,95.292a23.74,23.74,0,0,0,40.868-3.344c13.67-28.533,37.729-45.607,49-52.4a79.376,79.376,0,0,0,16.161-.158c8.253,6.579,24.855,22.855,34.283,52.9a23.742,23.742,0,0,0,34.108,13.674c44.99-24.71,69.378-66.63,81.915-97.446a242.525,242.525,0,0,0,12.024-38.348H1515.713a126.808,126.808,0,0,0,107.779-59.99l31.637-51.03a17.537,17.537,0,0,0,1.493-15.444c2.708-1.264,5.357-2.616,7.923-4.044a127.12,127.12,0,0,0,46.1-43.983l31.638-51.029a17.544,17.544,0,0,0,1.492-15.445c2.709-1.264,5.358-2.616,7.924-4.043a127.125,127.125,0,0,0,46.1-43.983l31.638-51.03a17.541,17.541,0,0,0,1.492-15.444c2.708-1.264,5.357-2.616,7.924-4.044a127.118,127.118,0,0,0,46.1-43.983l31.639-51.031a17.536,17.536,0,0,0,.416-17.755" transform="translate(0 0.931)" fill="#fcc111"/>
        </g>
      </g>
      <path id="Fill_4" data-name="Fill 4" d="M64.33,2.452C38.67,10.938,17.711,9.882,4.552.546A2.872,2.872,0,0,0,.329,4.184C8.1,19.36,35.161,31.693,66.406,6.364A2.248,2.248,0,0,0,64.33,2.452" transform="translate(141.373 392.051)" fill="#020203"/>
      <path id="Fill_6" data-name="Fill 6" d="M208.244,269.336h0a5.714,5.714,0,0,1-5.481-4.009c-7.751-24.7-20.088-41.418-29.073-51.09-9.743-10.488-17.74-15.177-17.82-15.223A93.846,93.846,0,0,1,141.6,200.32a26.5,26.5,0,0,1-9.4-1.306c-.024.012-2.628,1.273-6.885,3.862a154.584,154.584,0,0,0-16.414,11.565c-11.821,9.526-28.18,25.613-38.979,48.156a5.739,5.739,0,0,1-9.88.812,316.987,316.987,0,0,1-29.876-53.539,380.97,380.97,0,0,1-17.868-49.818A381.528,381.528,0,0,1,3.558,122c-1.778-10.232-2.386-16.63-2.471-18.232-.038-.729-.115-1.758-.213-3.061A227.645,227.645,0,0,1,.186,72.7C.86,58.625,3.373,47.78,7.653,40.467a2.123,2.123,0,0,1,1.87-1.078,2.228,2.228,0,0,1,2.232,1.923c.654,4.726,1.66,12.573,2.737,23.117a67.3,67.3,0,0,0,15.337,36.457c23.919,28.624,57.541,65.617,81.879,79.3a2.6,2.6,0,0,0,1.286.349,2.655,2.655,0,0,0,2.262-1.334,2.573,2.573,0,0,0,.015-2.613c-15.512-27.8-43.6-66.4-71.719-83.662A44.109,44.109,0,0,1,30.208,80.288,43.377,43.377,0,0,1,23.2,63.316C21,51.2,18.38,35.476,15.4,16.568a3.6,3.6,0,0,1,.8-2.951,3.855,3.855,0,0,1,2.9-1.332,3.569,3.569,0,0,1,2.87,1.452c3.264,4.244,6.579,8.894,10.088,13.817C52.928,56.829,78.9,93.264,128.487,93.264c22.026,0,40.167-3.917,53.92-11.643a5.952,5.952,0,0,1,2.943-.792,6.059,6.059,0,0,1,4.965,2.658,5.9,5.9,0,0,1,.64,5.525c-3.921,10.319-7.91,20.81-11.536,30.337a2.279,2.279,0,0,0,.215,2.162,2.534,2.534,0,0,0,2.062,1.076,2.279,2.279,0,0,0,1.986-1.164c2.961-4.851,8.667-14.555,15.273-25.792C210.961,75.21,225.9,49.8,229.5,44.887a2.381,2.381,0,0,1,1.949-1.021,2.625,2.625,0,0,1,2.044,1.01A2.4,2.4,0,0,1,233.885,47c-1.214,4.488-9.388,21.547-16.6,36.6-6.016,12.556-11.7,24.412-12.2,26.619a4.194,4.194,0,0,0,.789,3.622,4.481,4.481,0,0,0,3.473,1.682,4.229,4.229,0,0,0,2.986-1.245c36.323-35.243,50.049-50.708,50.049-73.48,0-15.206.3-28.189.543-36.4A4.53,4.53,0,0,1,267.479,0a4.608,4.608,0,0,1,2.543.775c13.11,8.654,13.11,23.878,13.11,36.111,0,12.265,7.738,34.265,13.285,44.638A26.246,26.246,0,0,1,299.1,89.01a97.425,97.425,0,0,1,1.478,18.423,162.066,162.066,0,0,1-1.757,22.213,220.011,220.011,0,0,1-13.885,50.518,215.083,215.083,0,0,1-12.46,25.666,189.991,189.991,0,0,1-16.36,24.177c-13.075,16.369-28.244,29.359-45.087,38.609A5.806,5.806,0,0,1,208.244,269.336ZM274.878,58.989c-.014,0-.024.011-.032.033-4.008,19.074-19.983,42.815-47.482,70.564a581.987,581.987,0,0,1-55.905,48.883,5.585,5.585,0,0,0-.46,8.476c16.5,15.79,31.2,39.8,36.58,59.736a4.235,4.235,0,0,0,1.59,2.34,4.336,4.336,0,0,0,2.552.838,4.2,4.2,0,0,0,2.928-1.193c24.855-24,43.886-48.094,56.564-71.626,13.395-24.864,19.563-48.9,18.334-71.434a53.245,53.245,0,0,0-4.145-18c-2.456-5.775-5.284-14.032-7.348-20.061l-.008-.024-.005-.014C276.349,62.56,275.126,58.989,274.878,58.989ZM18.129,108.256a3.737,3.737,0,0,0-3.822,3.73,159.765,159.765,0,0,0,2.136,26.193,246.243,246.243,0,0,0,21.436,68.243,195.6,195.6,0,0,0,20.953,34.02,5.555,5.555,0,0,0,9.493-1.2C74.27,225.4,83.527,205.8,95.23,195.33a5.531,5.531,0,0,0-.244-8.433c-16.744-13.42-57.433-47.758-73.588-76.692A3.67,3.67,0,0,0,18.129,108.256Zm138.268,1.05a4.548,4.548,0,0,0-2.408.7,69.676,69.676,0,0,1-9.131,4.751,16.491,16.491,0,0,0-7.319,6.232,16.685,16.685,0,0,0-2.656,9.249c.2,16.654,1.034,30.542,1.7,39.26a3.446,3.446,0,0,0,1.2,2.412,3.635,3.635,0,0,0,2.371.87,3.467,3.467,0,0,0,2.92-1.584c5.133-7.706,9.391-17.695,12.655-29.689a193.091,193.091,0,0,0,5.179-27.136,4.438,4.438,0,0,0-1.085-3.519A4.59,4.59,0,0,0,156.4,109.306Z" transform="translate(129.295 605.273)" fill="#020203"/>
      <path id="Fill_8" data-name="Fill 8" d="M1.494,101a1.155,1.155,0,0,1-.973-.522c-.772-1.072-.683-3.605.221-6.3a101.881,101.881,0,0,1,14.034-26.85A161.18,161.18,0,0,1,28.209,51.005a240.02,240.02,0,0,1,19.2-18.275A201.7,201.7,0,0,1,81.06,9.022,98.334,98.334,0,0,1,95.69,2.36,36.7,36.7,0,0,1,107.3,0c3.646,0,6.292,1.041,7.863,3.093,2,2.612,2.233,6.822.694,12.513a44.535,44.535,0,0,1-8.061,15.915A70.117,70.117,0,0,1,94.276,44.452C83.8,52.327,70.873,58.886,57.19,65.831,38.306,75.415,18.779,85.325,3.775,99.717A3.717,3.717,0,0,1,1.494,101ZM109.7,8.033a2.323,2.323,0,0,0-.373.03c-32.083,5.236-61.644,43-72.864,58.991a1.4,1.4,0,0,0-.112,1.49,1.48,1.48,0,0,0,2.057.631c4.78-2.6,9.256-5.011,13.585-7.342l.007,0c19.14-10.3,32.968-17.75,42.777-25.386,10.281-8,15.412-15.7,17.159-25.725a2.292,2.292,0,0,0-.506-1.872A2.262,2.262,0,0,0,109.7,8.033Z" transform="translate(107.605 33.2)" fill="#020203"/>
      <path id="Fill_10" data-name="Fill 10" d="M115.362,101h0a3.718,3.718,0,0,1-2.281-1.284c-15-14.393-34.53-24.3-53.414-33.887-13.683-6.945-26.608-13.5-37.086-21.379A70.117,70.117,0,0,1,9.064,31.521,44.533,44.533,0,0,1,1,15.607C-.536,9.917-.3,5.707,1.7,3.094,3.269,1.041,5.914,0,9.559,0A36.7,36.7,0,0,1,21.166,2.36,98.329,98.329,0,0,1,35.795,9.022a201.7,201.7,0,0,1,33.655,23.71,239.982,239.982,0,0,1,19.2,18.274A161.179,161.179,0,0,1,102.08,67.326a101.89,101.89,0,0,1,14.034,26.85c.9,2.7.992,5.232.22,6.3A1.154,1.154,0,0,1,115.362,101ZM44.6,42.915h0a64.589,64.589,0,0,0-11.744,1.078,1.359,1.359,0,0,0-.273,2.6A317.765,317.765,0,0,1,77.939,69.086,169.166,169.166,0,0,1,99.506,84.24c2.614,2.237,6.085,4.9,7.778,4.9a.865.865,0,0,0,.816-.418c.8-1.4-1.257-6.279-6.114-14.495C93.069,59.149,71.31,42.916,44.606,42.916Z" transform="translate(322.67 33.2)" fill="#020203"/>
      <path id="Fill_12" data-name="Fill 12" d="M57.073,1.724c-21.565,8.25-38.639.8-55.018-1.7A1.835,1.835,0,0,0,.845,3.41c14.047,10.7,42.74,25.238,59.418,2.476a2.739,2.739,0,0,0-3.19-4.162" transform="translate(325.031 390.64)" fill="#020203"/>
      <path id="Fill_14" data-name="Fill 14" d="M67.4,875.933l-.135,0-41.6-5.064a5.406,5.406,0,0,1-3.828-1.7,5.294,5.294,0,0,1-1.455-3.836l2.415-72.285c-.923-.685-1.858-1.339-2.762-1.971C14.616,787.287,9.5,783.71,8.228,775c-.683-4.661-.217-10.408,1.424-17.569,1.826-7.969,5.063-17.53,9.894-29.23,22.089-53.493,26.007-74.348,28.877-123.273-1.7-13.034-3.072-26.056-4.072-38.7-.8-10.119-1.365-20.022-1.681-29.434-.538-16.032-.16-25.19-.156-25.28-3.147-7.612-6.147-19.767-8.918-36.128-2.222-13.121-3.7-25.466-4.381-31.656a6.34,6.34,0,0,0-3.7-5.057L14.455,433.7a7.151,7.151,0,0,1-3.287-2.988,83.118,83.118,0,0,1-9.506-26.683A113.457,113.457,0,0,1,.184,377.888a145.241,145.241,0,0,1,2.888-21.841,139.977,139.977,0,0,1,3.591-13.8,8.628,8.628,0,0,1,3.439-4.529c7.254-4.829,11.9-7.607,14.526-9.087a5,5,0,0,0,2.456-3.37,175.994,175.994,0,0,1,7.906-27.895,25.385,25.385,0,0,0,1.778-7.734,336.015,336.015,0,0,1,4.461-37.262c1.59-8.875,2.976-14.166,2.99-14.217a186.34,186.34,0,0,1,5.243-40.614,189.846,189.846,0,0,1,6.782-22.564,3.676,3.676,0,0,0-.12-2.857,34.061,34.061,0,0,1-2.165-6.615,4.625,4.625,0,0,1,.447-3.2l8.92-16.631a8.8,8.8,0,0,0,.93-5.517,121.665,121.665,0,0,1-1.873-16.845,40.007,40.007,0,0,1,2.434-15.136,53.553,53.553,0,0,1,9.959-15.956c4.987-5.8,11.759-12.115,20.7-19.3.06-.049.123-.1.186-.15l.137-.109A227.608,227.608,0,0,1,128,38a201.414,201.414,0,0,1,38.2-26.663C180.272,3.921,192.844,0,202.56,0a24.066,24.066,0,0,1,12.461,3,17.329,17.329,0,0,1,5.36,4.949l.01.014.005.007c.012.018.026.038.036.053A232.51,232.51,0,0,1,255.037,5.5a204.766,204.766,0,0,1,35.469,2.9l.2-.293.108-.156A17.331,17.331,0,0,1,296.176,3a24.066,24.066,0,0,1,12.461-3c9.716,0,22.288,3.921,36.355,11.338A201.414,201.414,0,0,1,383.2,38c18.732,16.571,33.352,34.033,43.453,51.9a16.7,16.7,0,0,1,1.591,3.977c.323,1.058.723,2.371,1.418,4.321,2.509,7.042,5.24,16.279,5.619,19.006.358,2.582-.622,5.346-1.758,8.547l0,.006c-.389,1.1-.79,2.229-1.156,3.41-.392,1.269-.527,2.038-.39,2.223a.1.1,0,0,0,.087.045c.214,0,.673-.544,1.291-1.531.3-.487.588-.941.843-1.352.679-1.09,1.169-1.878,1.379-2.16a13.084,13.084,0,0,0,1.946-11.9c-.282-.9-.59-1.827-.917-2.77a1.483,1.483,0,0,1,.036-1.223.252.252,0,0,1,.2-.123.286.286,0,0,1,.176.072c6.516,5.2,10.925,9.729,13.876,14.246a25.228,25.228,0,0,1,4.455,15.945,8.106,8.106,0,0,0,1.062,4.7c5.266,9.813,8.966,17.128,11.995,23.719a171.606,171.606,0,0,1,8.122,20.753c4.231,13.531,6.268,27.216,6.814,45.757.559,19,3.145,42.832,5.216,59.48,2.242,18.024,4.383,31.76,4.4,31.9a8.909,8.909,0,0,0,4.251,5.914c2.409,1.406,6.544,3.921,12.56,7.915a10.26,10.26,0,0,1,4.133,5.482,138.334,138.334,0,0,1,5.906,34.717,109.57,109.57,0,0,1-1.8,25.056,84.2,84.2,0,0,1-9.435,25.814,7.625,7.625,0,0,1-3.472,3.18l-22.309,10.125a6.061,6.061,0,0,0-3.533,4.935c-.852,9.06-1.458,16.762-1.945,22.95v.018c-.887,11.265-1.473,18.706-2.662,23.907s-2.952,8.157-6.293,10.574a3.947,3.947,0,0,0-1.626,3.359c.384,10.039-2.306,18.695-7.995,25.727a38.889,38.889,0,0,1-8.437,7.693,44.432,44.432,0,0,1-9.164,4.75,3.386,3.386,0,0,0-2.184,3.1c-.21,8.313-1.954,19.417-5.184,33-2.592,10.9-5.446,20.444-6.665,24.518-.2.684-.366,1.224-.475,1.6a11.1,11.1,0,0,1-2.353,4.616,56.5,56.5,0,0,1-12.457,10.069,1.72,1.72,0,0,1-.866.236,1.794,1.794,0,0,1-1.4-.688,1.684,1.684,0,0,1-.316-1.467,341.428,341.428,0,0,0,6.654-35.257c1.461-10.828,2.419-21.755,2.929-33.406.972-22.248.152-44.058-.851-66.3a205.872,205.872,0,0,1-2.96,23.82,75.85,75.85,0,0,1-4.64,15.668,52.932,52.932,0,0,1-6.552,11.105c-2.528,3.34-5.386,6.487-8.7,10.132-2.045,2.252-4.159,4.58-6.474,7.256s-4.921,5.7-7.693,8.925l0,0c-19.311,22.436-48.49,56.338-65.27,71.708-2,1.83-3.938,3.713-5.815,5.535l-.011.011c-3.082,2.991-6.269,6.084-9.683,8.9a63.693,63.693,0,0,1-11.456,7.665,61.33,61.33,0,0,1-15.193,5.372,97.284,97.284,0,0,1-20.895,2.025c-17.675,0-32.629-2.778-45.718-8.492a91.5,91.5,0,0,1-16.869-9.633,123.651,123.651,0,0,1-14.528-12.353c-7.308-7.163-14.078-15.445-22.649-25.931-9.517-11.643-21.359-26.131-38-43.812a147.559,147.559,0,0,1-18.705-24.553,139.233,139.233,0,0,1-12.993-27.969,216.711,216.711,0,0,1-6.148-22.041,170.14,170.14,0,0,1-3.037-18.448l-.006-.009c-.082-.129-.259-.409-.519-.827a436.69,436.69,0,0,0,3.808,73.95c3.06,22.158,7.975,45.64,15.937,76.138a206.21,206.21,0,0,1,4.572,23.429c1.126,8.069,1.924,16.671,2.374,25.566a354.55,354.55,0,0,1-1.268,52.126c-1.689,16.952-4.568,32.313-8.325,44.422a89.579,89.579,0,0,1-6.448,15.936c-2.432,4.487-5.049,7.834-7.779,9.947-2.648,35.26-3.339,64.9-3.513,76.005A5.3,5.3,0,0,1,71.2,874.4,5.42,5.42,0,0,1,67.4,875.933ZM32.773,719a3.132,3.132,0,0,0-2.912,2c-2.95,7.723-5.354,13.235-6.851,16.5a2.99,2.99,0,0,0,.163,2.843,3.162,3.162,0,0,0,2.559,1.509c16.484.806,32.619,5.112,43.251,8.582a.793.793,0,0,0,.257.043.736.736,0,0,0,.708-.6.7.7,0,0,0-.424-.81c-13.394-5.969-27.672-9.218-34.991-10.623a3.1,3.1,0,0,1-2.187-1.627,3.036,3.036,0,0,1-.064-2.67c1.39-3.036,2.482-6.008,3.153-7.967a3.116,3.116,0,0,1,2.956-2.1c.047,0,.094,0,.142,0,11.882.533,27.535,2.82,38.573,4.645a1.037,1.037,0,0,0,.144.013.718.718,0,0,0,.711-.637.708.708,0,0,0-.527-.81,208.064,208.064,0,0,0-44.462-8.287C32.924,719,32.866,719,32.773,719ZM54.819,555.263a1.442,1.442,0,0,0-1.5,1.347,176.337,176.337,0,0,0-.372,25.23,267.451,267.451,0,0,0,3.129,28.972A278.8,278.8,0,0,0,72.629,670.9a.913.913,0,0,0,.871.6,1.034,1.034,0,0,0,.811-.391.887.887,0,0,0,.134-.809c-4.638-16.506-8.771-37.414-12.284-62.141-2.924-20.585-4.789-39.388-5.838-51.538A1.462,1.462,0,0,0,54.819,555.263ZM193.395,472.73h0c-8.6,4.924-23.668,13.11-46.6,24.152a14.475,14.475,0,0,0-8.157,12.011c-.516,7.515-.715,14.892-.593,21.926a38.473,38.473,0,0,0,3.836,16.09c.815,1.685,1.622,3.354,2.414,4.995l.079.163.862,1.786.048.1.152.314.067.139.14.289.01.021,0,.01.006.014.005.011.013.027c8.308,17.206,15.483,32.065,22.37,44.489,3.648,6.577,7.012,12.11,10.283,16.915a111.956,111.956,0,0,0,10.65,13.522,72.344,72.344,0,0,0,11.753,10.273,63.5,63.5,0,0,0,13.594,7.162,78.392,78.392,0,0,0,16.171,4.194,126.245,126.245,0,0,0,19.483,1.366c35.435,0,48.5-13.655,58.037-23.625l.041-.043.021-.021.013-.014c1.686-1.763,3.279-3.427,4.886-4.887,7.685-6.982,17.982-16.492,29.485-28.161a501.2,501.2,0,0,0,35.463-39.782c10.961-13.8,18.627-25.535,23.435-35.863a68.581,68.581,0,0,0,6.842-25.825c.85-15.618,4.308-41.965,6.542-52.58.184-.875.439-1.9.781-3.145-9.362-20-13.612-60.011-16.715-89.224v-.013l-.007-.07-.022-.207c-.169-1.592-.422-3.974-.668-6.264a2.1,2.1,0,0,1-1.336.491,2.048,2.048,0,0,1-1.141-.349,63.669,63.669,0,0,0-7.529-4.211,1.308,1.308,0,0,0-.572-.132,1.334,1.334,0,0,0-1.127.648,1.269,1.269,0,0,0-.034,1.272,16.087,16.087,0,0,1,1.686,4.669,1.193,1.193,0,0,1-.269.986,1.364,1.364,0,0,1-1.013.48,1.035,1.035,0,0,1-.919-.534,33.434,33.434,0,0,0-6.828-8.223,36.49,36.49,0,0,0-8.475-5.5,42.1,42.1,0,0,0-9.235-3.083,43.987,43.987,0,0,0-9.108-.961c-6.41,0-12.151,1.491-15.358,3.989-1.325,1.031-1.928,1.858-1.744,2.39.154.45.859.688,2.039.688.35,0,.759-.023,1.217-.068a110.566,110.566,0,0,1,11.2-.664c12.912,0,19.017,3.519,28.637,11.936a15.4,15.4,0,0,0,5.986,3.119,14.175,14.175,0,0,1,5.7,2.984,1.416,1.416,0,0,1,.394,1.609,1.517,1.517,0,0,1-1.951.922,18.167,18.167,0,0,0-5.981-.952,27.394,27.394,0,0,0-9.58,1.884l-.357-.1a16.692,16.692,0,0,0-6.293-9.738,30.876,30.876,0,0,0-8.75-4.809.447.447,0,0,0-.151-.027.432.432,0,0,0-.364.205.463.463,0,0,0-.025.446,18.62,18.62,0,0,1-1.71,18.744,4.4,4.4,0,0,1-2.882,1.765c-.734.117-1.331.21-1.878.292a.494.494,0,0,1-.075.005.457.457,0,0,1-.427-.291.465.465,0,0,1,.106-.515,14.339,14.339,0,0,0,2.577-16.965,14.517,14.517,0,0,0-4.494-5.036,1.4,1.4,0,0,0-.731-.245c-.761-.036-1.551-.06-2.348-.069a.359.359,0,0,0-.352.278.334.334,0,0,0,.168.388,10.38,10.38,0,0,1-4.916,19.526c-.075,0-.158,0-.235,0h-.065A10.544,10.544,0,0,1,329.489,349.6a10.305,10.305,0,0,1,1.9-5.766,1.206,1.206,0,0,1,.982-.506,1.083,1.083,0,0,1,1.039.7,3.678,3.678,0,0,0,3.234,2.439,5.138,5.138,0,0,0,.529.029,4.292,4.292,0,0,0,4.19-2.958,4.224,4.224,0,0,0,.05-2.375,1.394,1.394,0,0,0-1.34-1.029l-.082,0a61.825,61.825,0,0,0-8.373,1.059,4.536,4.536,0,0,0-2.507,1.435,14.341,14.341,0,0,0,2.834,21.47.322.322,0,0,1,.13.365.326.326,0,0,1-.313.239c-.6.01-1.2.014-1.838.014h-.384a4.107,4.107,0,0,1-2.854-1.186,18.659,18.659,0,0,1-4.987-17.775.888.888,0,0,0-.159-.768.866.866,0,0,0-1.058-.257,40.534,40.534,0,0,0-14.1,10.528c-4.812,5.623-7.915,8-11.07,8.47a1.774,1.774,0,0,1-.237.018,1.533,1.533,0,0,1-1.229-2.422,39.718,39.718,0,0,1,3.065-3.78,1.731,1.731,0,0,0-1.257-2.9c-.174,0-.346,0-.519,0-4.63,0-9.793.5-12.469,6.524-1.05,2.36-2.693,8.492-3.669,15.207-.881,6.062-1.569,14.876.16,22.442.361,1.583.39,2.621.085,3a.415.415,0,0,1-.34.165c-.559,0-1.474-.867-2.577-2.443-2.6-3.71-6.358-11.608-8.418-21.657-1.678-8.181-2.728-20.537,1.8-32.938,10.014-27.451,35.516-40.237,80.255-40.237,29.533,0,42.473,20.549,47.558,32.8-.366-3.255-.692-5.983-1-8.339a134.2,134.2,0,0,0-28.348-65.51,59.866,59.866,0,0,0,.045,20.79,45.471,45.471,0,0,0,11.832,23.627C357.31,293.142,357.4,271.651,360.021,254.6a126.047,126.047,0,0,0-17.788-14.858c-1.493,2.615-2.979,5.468-4.414,8.482a29.477,29.477,0,0,0,4.529,4.963,22.894,22.894,0,0,0,5.072,3.412,14.826,14.826,0,0,0,6.422,1.551c.166,0,.343,0,.5-.01a27.381,27.381,0,0,1-9.288,1.6,24.1,24.1,0,0,1-10.541-2.331c-.006.014-1.04,2.286-2.41,6.411a140.389,140.389,0,0,0-4.566,17.825,17.327,17.327,0,0,0-2.112-3.3,40.025,40.025,0,0,0-8.17-7.711,14.432,14.432,0,0,0-.327,5.3,32.93,32.93,0,0,0,1.841,8.153A37.793,37.793,0,0,0,332.678,302.2l-.012,0a54.115,54.115,0,0,1-13.987-7.984A35.284,35.284,0,0,1,309.6,283.92a24.174,24.174,0,0,1-2.99-14.769c-.307-.229-.729-.516-1.338-.927l-.016-.011-.005,0c-4.976-3.358-18.194-12.277-25.078-30.639h-.006a10.366,10.366,0,0,1-1.175.055,25.156,25.156,0,0,1-10.141-2.4c-5.709-2.567-11.043-6.967-15.853-13.076-2.892,4.292-4.35,10.136-4.214,16.9a48.139,48.139,0,0,0,1.273,9.915,52.888,52.888,0,0,0,3.338,9.835,44.606,44.606,0,0,0,10.705,14.92,29.591,29.591,0,0,0,16.072,7.55,58.83,58.83,0,0,1-8.726.7c-20.46,0-29.528-13.317-38.277-36.32-3.751,2.387-10.583,7.978-17.488,15.881-5.482,6.275-12.823,16.132-16.663,27.448a84.081,84.081,0,0,1,3.3-18.957c1.795-6.324,4.219-13.029,7.712-22.538a89.211,89.211,0,0,1-16.152,7.2,80.356,80.356,0,0,1-24.528,3.462c-.667,0-1.312-.005-1.916-.016a103.6,103.6,0,0,1-14.367,11.98,139.937,139.937,0,0,1-24.558,13.357c5.076-4.033,8.587-7.862,11.049-12.053a55.376,55.376,0,0,0,4.811-11.907l0-.013.005-.016.005-.016,0-.015.015-.046c.819-2.577,1.665-5.242,2.834-8.247-.1-.125-2.495-3.191-6.909-13.383a130.044,130.044,0,0,0-12.152,8.855,57.986,57.986,0,0,1-11.718,10.954,124.818,124.818,0,0,0-8.666,10.286c3.924,10.665,8.917,19.076,14.842,25h-.015a48.887,48.887,0,0,1-7.508-1.4,71.928,71.928,0,0,1-17.747-7.3c-1.471,2.749-2.872,5.622-4.161,8.537a46.851,46.851,0,0,0,7.4,9.851h-.02a51.288,51.288,0,0,1-10.323-2.588,119.783,119.783,0,0,0-3.85,12.454,45.415,45.415,0,0,0,7.4,7.78,27.077,27.077,0,0,0,5.7,3.911,10.755,10.755,0,0,0,4.694,1.184c3.879,0,7.156-2.537,11.691-6.046l0,0c9.287-7.185,23.322-18.042,57.035-18.042,18.947,0,33.5,5.792,43.256,17.215,6.335,7.418,10.521,17.042,12.441,28.6a89.131,89.131,0,0,1,1.147,15.488,99.362,99.362,0,0,1-1.214,14.459,1.029,1.029,0,0,1-1.051.906,1.077,1.077,0,0,1-1.105-1.062,89.9,89.9,0,0,0-1.553-13.355,12.959,12.959,0,0,0-8.74-9.9l-2.127-.693a12.664,12.664,0,0,1-4.353-2.479c-17.307-14.885-35.552-22.432-54.229-22.432a72.365,72.365,0,0,0-21.17,3.233,83.834,83.834,0,0,0-17.064,7.44,2.87,2.87,0,0,0-1.444,2.664,2.775,2.775,0,0,0,1.688,2.439c.48.209.994.4,1.527.573a15.6,15.6,0,0,0,4.779.741,17.547,17.547,0,0,0,7.592-1.782,74.1,74.1,0,0,1,14.224-5.256,57.435,57.435,0,0,1,13.939-1.769,53.381,53.381,0,0,1,11,1.149,58.21,58.21,0,0,1,10.885,3.469,71.4,71.4,0,0,1,10.8,5.828,94.905,94.905,0,0,1,10.75,8.223,1.541,1.541,0,0,1-.417,2.569,10.339,10.339,0,0,1-4.046.933,5.673,5.673,0,0,1-3.762-1.313,75.332,75.332,0,0,0-13.72-10.261,1.138,1.138,0,0,0-.564-.151,1.182,1.182,0,0,0-.875.4,1.083,1.083,0,0,0-.264.867,17.607,17.607,0,0,1,.15,2.279,18.584,18.584,0,0,1-7.323,14.825,3.642,3.642,0,0,1-2.024.73c-1.4.085-2.843.172-4.325.172a.712.712,0,0,1-.762-.537c-.055-.286.087-.7.666-.933a15.59,15.59,0,0,0,6.305-4.621,14.029,14.029,0,0,0,3.093-7.234,14.363,14.363,0,0,0-1.533-8.325,3.491,3.491,0,0,0-1.989-1.7c-.65-.211-1.275-.4-1.857-.563a.693.693,0,0,0-.187-.026.671.671,0,0,0-.514,1.083,10.262,10.262,0,0,1,2.113,6.268,10.4,10.4,0,0,1-10.39,10.39c-.072,0-.154,0-.23,0h-.067a10.541,10.541,0,0,1-10.09-10.6,10.3,10.3,0,0,1,1.914-5.782,1.179,1.179,0,0,1,.972-.5,1.078,1.078,0,0,1,1.035.7,3.671,3.671,0,0,0,3.179,2.44,4.059,4.059,0,0,0,.51.031,4.211,4.211,0,0,0,4.423-3.659,1.592,1.592,0,0,0-1.482-1.8c-.706-.036-1.409-.055-2.09-.055a40.783,40.783,0,0,0-7.253.659,4.39,4.39,0,0,0-2.894,1.837,14.328,14.328,0,0,0-2.38,7.914,14.055,14.055,0,0,0,2.625,8.277,14.219,14.219,0,0,0,6.8,5.07c.323.116.612.276.612.962,0,.384-.65.614-1.74.614a12.014,12.014,0,0,1-2.6-.324,8.806,8.806,0,0,1-4.409-2.037,18.926,18.926,0,0,1-3.42-4.6,18.314,18.314,0,0,1-1.874-5.53,18.675,18.675,0,0,1,.094-6.758,1.642,1.642,0,0,0-.337-1.37,1.559,1.559,0,0,0-1.206-.584,1.537,1.537,0,0,0-.642.14,95.51,95.51,0,0,0-13.977,8.087,18.168,18.168,0,0,1-10.1,3.1c-.278,0-.555-.006-.823-.019a44.712,44.712,0,0,1-18.4-4.763A47.617,47.617,0,0,1,83.37,340.735c-.112,8.8.012,18.648.143,29.076v.021l.031,2.548c.426.779.781,1.4,1.12,1.95l-.006,0c-.109-.046-.51-.221-1.1-.542.194,16.053.323,32.968-.369,47.805.849,3.242,1.714,6.247,2.57,8.933a280.136,280.136,0,0,0,22.927,29.486A34.593,34.593,0,0,0,146,469.625c13.2-4.64,24.7-8.941,34.189-12.783,12.985-5.258,21.893-9.538,26.477-12.721a5.794,5.794,0,0,1,3.15-.946,5.912,5.912,0,0,1,4.262,1.845,5.785,5.785,0,0,1,1.579,4.325c-.795,15.367.206,34.366.249,35.168a42.973,42.973,0,0,0,11.286,8.334,81.772,81.772,0,0,0,11.234,4.909,15.1,15.1,0,0,0,5.027.858,15.364,15.364,0,0,0,4.815-.774,61.088,61.088,0,0,0,7.762-3.081,2.635,2.635,0,0,1,3.514,1.114,2.614,2.614,0,0,1-.049,2.7,23.84,23.84,0,0,1-9.54,9.51,1.143,1.143,0,0,0-.558,1.318,1.118,1.118,0,0,0,1.1.87c.04,0,.083,0,.135-.007a33.972,33.972,0,0,0,6.137-1.183c10.184-4.83,15.62-9.22,17.626-14.234a1.685,1.685,0,0,1,.978-1.506c.725-.344,1.355-.688,1.965-1.02l.049-.026c2.465-1.343,4.593-2.5,10.054-2.5.842,0,1.789.03,2.815.09.093,0,.169.007.238.007a5.55,5.55,0,0,0,4.681-2.81c2.5-5.147,3.866-11.467,4.056-18.785-.113-1.306-.26-2.625-.437-3.922a9.494,9.494,0,0,1,2.234-7.539,9.213,9.213,0,0,1,6.935-3.182,9.533,9.533,0,0,1,1.6.139c7.39,1.273,14.514,1.9,21.4,2.5l.021,0,.016,0,.022,0h.012c10.445.915,20.309,1.779,28.21,4.843,8.735,3.387,14.306,9.146,17.535,18.124,12.324,34.277,6.893,58.32-20.752,91.879a1.485,1.485,0,0,1-1.174.58,1.659,1.659,0,0,1-1.393-.792,1.454,1.454,0,0,1-.012-1.479,127.259,127.259,0,0,0,7.456-16.8,104,104,0,0,0,4.558-17,77.832,77.832,0,0,0,1.189-16.508,56.98,56.98,0,0,0-2.645-15.323,45.359,45.359,0,0,0-8.909-15.865A49.793,49.793,0,0,0,339.168,476a3.2,3.2,0,0,0-4.387,1.578,3.206,3.206,0,0,0,.429,3.466c13.971,17.257,19.76,34.915,17.208,52.484-2.569,17.677-12.972,30.284-18.945,36.225a1.551,1.551,0,0,1-1.107.476,1.653,1.653,0,0,1-1.359-.741A1.539,1.539,0,0,1,330.89,568a134.178,134.178,0,0,0,6.152-19.234,6.632,6.632,0,0,0-2.527-3.327,6.753,6.753,0,0,0-3.834-1.187,6.64,6.64,0,0,0-4.065,1.384c-10.426,7.97-29.832,22.806-78.7,22.806a190.325,190.325,0,0,1-30.007-2.2,120.524,120.524,0,0,1-21.842-5.524,94.254,94.254,0,0,1-26.275-14.642,7.19,7.19,0,0,0-4.382-1.486,7.371,7.371,0,0,0-4.284,1.385,7.063,7.063,0,0,0-2.675,3.847c-.141.5-.265,1.017-.367,1.534a3,3,0,0,1-1.124,1.836,3.183,3.183,0,0,1-1.922.641,3.069,3.069,0,0,1-2.626-1.445c-3.494-5.463-4.638-10.795-3.824-17.83a.942.942,0,0,1,.959-.848.955.955,0,0,1,.883.568,14.944,14.944,0,0,0,3.214,4.656,1.585,1.585,0,0,0,1.1.439,1.685,1.685,0,0,0,1.682-1.517c.094-.907.17-1.658.254-2.508a7.689,7.689,0,0,1,5.4-6.6l1.708-.528a8.8,8.8,0,0,1,7.367,1.013c4.347,2.8,12.623,7.834,19.2,10.119a85.906,85.906,0,0,0,15.746,3.827,89.681,89.681,0,0,0,12.914.942c1.82,0,3.635-.058,5.394-.173.413-.026.818-.04,1.206-.04a16.784,16.784,0,0,1,7.931,1.94,29.445,29.445,0,0,0,7.182,2.631,31.738,31.738,0,0,0,7.036.854h.289a28.775,28.775,0,0,0,6.731-.887,34.143,34.143,0,0,0,6.973-2.545,18.236,18.236,0,0,1,8.19-2.014c.365,0,.75.013,1.143.04,1.838.13,3.766.2,5.732.2a89.725,89.725,0,0,0,12.915-.942,86.06,86.06,0,0,0,15.746-3.827l.039-.014a1.224,1.224,0,0,1,1.525.634,1.208,1.208,0,0,1-.135,1.3c-1.026,1.335-2.056,2.645-3.064,3.894a2.1,2.1,0,0,0-.288,2.3,2.24,2.24,0,0,0,1.989,1.3,2.193,2.193,0,0,0,1.092-.3,98.13,98.13,0,0,0,19.905-15.026c5.493-10.232,5.99-19.037,1.517-26.918a36.968,36.968,0,0,0-8.15-9.507A104.153,104.153,0,0,0,309.02,489a6.161,6.161,0,0,0-3.406-1.031,6.328,6.328,0,0,0-3.717,1.223,6.264,6.264,0,0,0-2.326,3.351,26.844,26.844,0,0,1-7.734,12.641,41.705,41.705,0,0,1-13.3,7.887c-.846.333-1.981,2.393-3.7,5.512l-.008.014,0,.007-.005.009c-2.616,4.744-6.569,11.914-12.673,18.559a15.289,15.289,0,0,1-5,3.608,15.5,15.5,0,0,1-6.017,1.367c-1.281.032-2.585.048-3.874.048-.927,0-1.817-.008-2.644-.024a16.4,16.4,0,0,1-12.049-5.7,108.369,108.369,0,0,1-11.59-16.316,15.772,15.772,0,0,0-7.074-6.466,72.2,72.2,0,0,1-12.955-7.732,19.565,19.565,0,0,1-5.587-6.632,20.243,20.243,0,0,1-2.218-8.4,160.8,160.8,0,0,1,.26-18.184Zm-97.736,9.95a2.732,2.732,0,0,0-1.988.866,2.618,2.618,0,0,0-.695,1.986,81.672,81.672,0,0,0,2.608,15.316,106.822,106.822,0,0,0,5.706,16.017,125.411,125.411,0,0,0,8.622,16.022,133,133,0,0,0,11.357,15.329,1.68,1.68,0,0,0,1.3.624,1.859,1.859,0,0,0,1.493-.783,1.715,1.715,0,0,0,.2-1.6,85.7,85.7,0,0,1-3.629-13.442,94.369,94.369,0,0,1-1.466-13.286,41.591,41.591,0,0,0-13.767-29.2l-7.975-7.156A2.612,2.612,0,0,0,95.659,482.68ZM240.122,197.4c58.624,0,103.656,17.1,133.845,50.834a140.045,140.045,0,0,1,24.638,39.1,142.821,142.821,0,0,1,8.281,26.5c5.3,25.546,13.623,61.347,24.748,106.408,8.652,35.042,16.131,64.05,18.218,72.105a4.936,4.936,0,0,0,2.328,3.044,22.15,22.15,0,0,0,4.1,1.872,7.4,7.4,0,0,0,7.08-1.347,7.483,7.483,0,0,0,2.607-4.456c3.125-17.544,6.462-44.282,8.927-71.523a1.271,1.271,0,0,0-.312-1,1.4,1.4,0,0,0-1.036-.437,1.286,1.286,0,0,0-1.3,1.081c-3.8,19.751-8.673,40.1-11.238,50.47a1.9,1.9,0,0,1-3.659.057c-5.66-20.274-11.395-42.729-16.584-64.938-5.889-25.219-10.7-48.433-14.288-69-.984-5.634-2.221-12.385-3.928-19.742a222.664,222.664,0,0,0-6.649-23.207,176.21,176.21,0,0,0-10.777-24.8,148.6,148.6,0,0,0-16.312-24.507,139.082,139.082,0,0,0-23.25-22.342,151.967,151.967,0,0,0-31.6-18.3,180.5,180.5,0,0,0-19.366-7.049,213.007,213.007,0,0,0-21.98-5.333c-7.89-1.485-16.223-2.624-24.77-3.386-8.9-.787-18.228-1.192-27.733-1.2a261.355,261.355,0,0,0-45.6,3.8A193.721,193.721,0,0,0,157.6,200.375a148.087,148.087,0,0,0-51.294,33.185,136.779,136.779,0,0,0-27.023,38.772,116.185,116.185,0,0,0-9.717,30.829,372.1,372.1,0,0,0-3.8,44.162c-.451,14.116-.291,27.773-.149,39.823v.1c.159,13.576.3,25.3-.372,35.379-.418,6.285-.5,9.2-.273,9.445a.04.04,0,0,0,.032.017c.269,0,.9-2.92,2.038-9.469,3.554-20.4,4.916-47.02,6.118-70.505v-.067l0-.046,0-.054v-.016l0-.064v-.04l0-.033c.8-15.488,1.482-28.862,2.67-37.541a130.516,130.516,0,0,1,33.443-69.622C138.577,213.295,182.6,197.4,240.122,197.4Zm-35.51,260.315a1.707,1.707,0,0,0-1.411.732,39.19,39.19,0,0,0-4.486,8.013,12.88,12.88,0,0,0-.462,8.461,12.174,12.174,0,0,0,4.966,6.788,18.7,18.7,0,0,0,2.919,1.572,2.482,2.482,0,0,0,.984.206,2.519,2.519,0,0,0,1.957-.964,2.465,2.465,0,0,0,.459-2.118c-1.156-4.806-3.1-13.918-3.14-20.939A1.76,1.76,0,0,0,204.611,457.719ZM41.462,462.98a.911.911,0,0,0-.851.591.871.871,0,0,0,.23.977c3.65,3.346,6.712,4.973,9.361,4.973,2.363,0,4.392-1.31,6.2-4a40.093,40.093,0,0,0,4.357-10.155,1.06,1.06,0,0,0-.146-.958,1.169,1.169,0,0,0-.926-.469,1.046,1.046,0,0,0-.867.463c-4.165,5.848-9.073,8.814-14.585,8.814a15.95,15.95,0,0,1-2.61-.22A.987.987,0,0,0,41.462,462.98ZM8.935,374.349a1.4,1.4,0,0,0-1.453,1.336,106.908,106.908,0,0,0,.883,24.295A78.5,78.5,0,0,0,11.286,412.1,70.07,70.07,0,0,0,16.4,423.874a8.27,8.27,0,0,0,3.389,3.353,86.1,86.1,0,0,0,9.016,4.162,1.594,1.594,0,0,0,1.954-.661,1.548,1.548,0,0,0,.067-1.533c-2.4-4.817-4.583-9.046-5.756-11.319l-.082-.16-.011-.02,0-.008,0-.005-.017-.032,0-.007-.006-.014-.032-.062-.006-.012,0-.008-.048-.093-.014-.028,0-.008-.007-.015,0-.005-.013-.026,0-.005-.01-.02-.1-.193-.04-.077-.011-.021-.059-.115-.012-.023-.025-.049-.006-.012-.011-.021-.05-.1c-8.137-15.772-12.222-23.688-14.091-41.1A1.411,1.411,0,0,0,8.935,374.349Zm445.4,38.675a1.121,1.121,0,0,0-1.055.688,1.03,1.03,0,0,0,.23,1.149,7.092,7.092,0,0,0,5.061,2.317c2.4,0,4.649-1.382,6.344-3.892a16.927,16.927,0,0,0,2.628-9.4,16.441,16.441,0,0,0-3.222-10.2.959.959,0,0,0-.754-.371,1.023,1.023,0,0,0-.8.4.9.9,0,0,0-.138.815,18.773,18.773,0,0,1,.717,5.2c0,7.328-4.025,13.289-8.972,13.289h-.036Zm-410.684-19.7a.959.959,0,0,0-.755.371,16.448,16.448,0,0,0-3.222,10.2c0,7.327,4.025,13.288,8.973,13.288a7.062,7.062,0,0,0,5.062-2.317,1.042,1.042,0,0,0,.229-1.149,1.119,1.119,0,0,0-1.055-.688h-.035c-4.947,0-8.972-5.962-8.972-13.289a18.781,18.781,0,0,1,.716-5.2.906.906,0,0,0-.138-.815A1.021,1.021,0,0,0,43.652,393.319Zm414.92-4.791c-2.771,0-5.376,1.6-7.334,4.5A19.568,19.568,0,0,0,448.2,403.89a22.456,22.456,0,0,0,.489,4.665c.125.578.307.909.5.909.21,0,.437-.442.437-1.414,0-9.916,5.482-17.983,12.221-17.983a.1.1,0,0,0,.053-.011.035.035,0,0,0,.017-.032A5.058,5.058,0,0,0,458.572,388.528Zm-409.924,0a5.058,5.058,0,0,0-3.344,1.5.035.035,0,0,0,.017.032.1.1,0,0,0,.053.011c6.739,0,12.222,8.067,12.222,17.983a3.446,3.446,0,0,0,.13,1.046c.078.237.186.368.3.368.192,0,.374-.331.5-.909a22.064,22.064,0,0,0,.49-4.665,19.661,19.661,0,0,0-3.037-10.863C54.024,390.126,51.419,388.528,48.648,388.528Zm446-41.62a2.321,2.321,0,0,0-1.7.754,2.252,2.252,0,0,0-.589,1.741c.535,6.142.377,15.542-.468,27.938-.692,10.147-1.677,19.742-2.2,24.557a2.344,2.344,0,0,0,.593,1.841,2.453,2.453,0,0,0,1.824.816,2.5,2.5,0,0,0,.6-.075c13.567-3.37,17.027-4.431,17.378-6.029a136.318,136.318,0,0,0,1.4-25.941,94.062,94.062,0,0,0-2.258-17.049,6.682,6.682,0,0,0-3.711-4.548,92.23,92.23,0,0,0-10.149-3.892A2.349,2.349,0,0,0,494.646,346.909ZM65.8,220.577a.934.934,0,0,0-.663.284c-4.367,4.313-10.231,10.8-13.371,17.188a10.473,10.473,0,0,0-.98,3.289c-.595,4.589-2.585,21.279-3.211,43.375-.351,12.415-.222,24.617.382,36.266a344.59,344.59,0,0,0,4.313,40.068,1.654,1.654,0,0,0,1.688,1.426,1.818,1.818,0,0,0,1.327-.55,1.651,1.651,0,0,0,.427-1.269c-1.786-28.731-2.948-72.006,1.666-115.009a10.674,10.674,0,0,1,.464-2.173,151.1,151.1,0,0,1,8.812-21.5.9.9,0,0,0-.013-.916A1,1,0,0,0,65.8,220.577Zm-28.849,98.19a1.018,1.018,0,0,0-1.031.853c-1.983,10.35-4.461,25.508-5.009,38.947a1.53,1.53,0,0,0,.423,1.148,1.654,1.654,0,0,0,1.191.5,1.539,1.539,0,0,0,1.3-.694c1.179-1.721,2.4-3.562,3.641-5.473a9.572,9.572,0,0,0,1.515-5.747c-.337-5.452-.91-16.4-.953-28.485A1.033,1.033,0,0,0,36.953,318.767ZM438.441,214.248a2.1,2.1,0,0,0-1.541.678,2.006,2.006,0,0,0-.524,1.533c3.178,39.778,6.246,78.986,7.17,96.384a141.432,141.432,0,0,1-2.839,36.079,2.611,2.611,0,0,0,.534,2.214,2.784,2.784,0,0,0,2.135,1.023,2.685,2.685,0,0,0,1.382-.383,29.023,29.023,0,0,0,9.92-9.371c3.105-4.713,5.31-10.73,6.739-18.4.869-4.656,1.127-11.951.768-21.682-.3-8.122-1.02-17.785-2.141-28.718-1.987-19.356-4.739-37.523-5.838-42.026-1.526-6.256-9.755-13.279-14.524-16.909A1.982,1.982,0,0,0,438.441,214.248ZM299.68,142.6a3.04,3.04,0,0,0-2.371,1.163,2.834,2.834,0,0,0-.519,2.471,139.664,139.664,0,0,1,3.468,24.027,7.477,7.477,0,0,0,4.712,6.452,423.011,423.011,0,0,1,39.876,17.843A201.882,201.882,0,0,1,378,215.756c21.054,16.84,36.042,37.4,47.17,64.7a1.285,1.285,0,0,0,1.223.826,1.308,1.308,0,0,0,1.324-1.142c.454-3.319.551-8.193-1.57-12.567a27.2,27.2,0,0,1-2.31-11.993,68.432,68.432,0,0,1,1.639-11.621l0-.019c1.332-6.694,2.709-13.616,1.349-22.171a3.469,3.469,0,0,0-3.484-2.883l-.132,0c-.186.006-.334.008-.464.008-7.564,0-20.838-6.136-40.581-18.759-17.006-10.872-35.676-24.52-52.147-36.562l-.022-.016-.03-.022-.005,0-.04-.029-.009-.007-.018-.013-.006,0-.018-.013-.019-.014-.112-.082-.058-.042,0,0-.035-.025,0,0-.026-.019-.01-.007-.014-.011,0,0c-11.255-8.228-20.975-15.333-28.267-20.157A2.969,2.969,0,0,0,299.68,142.6ZM91.009,211.24a17.568,17.568,0,0,0-9.92,3.066,22.217,22.217,0,0,0-7.62,9.48,81.752,81.752,0,0,0-6.11,21.017,163.577,163.577,0,0,0-1.733,24.264,1.468,1.468,0,0,0,.418,1.075,1.6,1.6,0,0,0,1.133.462,1.463,1.463,0,0,0,1.4-.965c4.986-12.742,16.149-36.022,34.887-48.771a3.1,3.1,0,0,0,.179-4.985,21.731,21.731,0,0,0-6.108-3.464A18.888,18.888,0,0,0,91.009,211.24Zm208.852,15.393a14.1,14.1,0,0,1-3.469,4.842,21.035,21.035,0,0,1-4.518,2.746c3,7.49,9.658,15.25,16.97,19.767a33.888,33.888,0,0,1,2.373-9.409,15.445,15.445,0,0,1,1.623-2.97,63.142,63.142,0,0,1-10.158-10.558,30.023,30.023,0,0,1-2.815-4.407Zm-80.63-13.479c-1.318.107-2.591.221-3.784.338-9.858,14.793-18.845,26.744-37.04,34.728a69.386,69.386,0,0,0,21.965-7.225,58.133,58.133,0,0,0,18.93-16.1,76.455,76.455,0,0,0-.071-11.743ZM175.7,221.389l-.3.094-.016,0-.144.045-.017.005-.051.015-.005,0c-.21.064-.433.132-.644.2-3.572,2.776-12.372,9.889-16.926,15.957.007.014,1.636,3.006,3.914,6.711,2.872-3.04,5.352-7.529,8.223-12.728l.01-.015.007-.013C171.465,228.561,173.412,225.041,175.7,221.389Zm29.311-6.63h0c-3.68.54-7.342,1.177-10.886,1.895-3.2,5.823-7.071,12.388-12.674,21.761a116.593,116.593,0,0,0,11.392-10.136,167.9,167.9,0,0,0,12.168-13.52ZM259.059,213h0c-.094.179-.154.3-.185.356l-.011.021,0,.008,0,.007,0,.007a23.942,23.942,0,0,0,8.578,8.578,21.826,21.826,0,0,0,8.322,3.254,100.545,100.545,0,0,0-.344-10.435c-5.273-.78-10.774-1.384-16.349-1.8Zm8.976-126.193h0c.989,1.706,2.032,3.375,3.1,4.96,8.371,12.429,22.986,24.494,43.438,35.859,31.358,17.42,55.2,35.637,74.366,50.275l.012.009.012.009.017.014.014.01.007.005.024.019.018.013.015.012.006,0,.006.005.025.019.016.013c12.448,9.506,22.279,17.014,30.444,21.327,5.154,2.73,9.841,4.115,13.93,4.115,4.56,0,10.457-7.2,15.2-12.98a13.055,13.055,0,0,0,2.862-6.787,21.023,21.023,0,0,0-.673-7.769c-1.173-4.557-3.566-9.695-7.532-16.169,1.471,5.946,2.92,12.179,3.085,17.293.169,5.188-.98,8.91-3.615,11.711a21.844,21.844,0,0,1-4.982,4.171,12.7,12.7,0,0,1-6.5,1.717c-5.417,0-12.459-3.059-21.529-9.351-7.431-5.164-15.814-12.365-24.689-19.99l-.015-.014-.031-.026-.015-.013-.029-.024-.013-.011-.009-.008-.037-.031-.005,0-.007-.007-.014-.011-.005,0-.006-.006-.023-.019c-15.218-13.075-32.464-27.894-50.768-37.808-4.495-2.434-9.506-5.064-12.821-6.8l-.023-.012-.068-.036-.012-.006-.011-.005-.159-.084-.027-.014-.031-.016-.038-.02-.02-.011-.059-.031-.005,0-.046-.023-.005,0-.008,0-.151-.079-.172-.09-.1-.052-.01-.005-.133-.07-.026-.014-.041-.021-.053-.028-.005,0-.019-.01-.005,0-.013-.007,0,0-.007,0c-9.514-4.991-19.352-10.151-28.344-15.593-4.83-2.924-9-5.67-12.738-8.4A102.816,102.816,0,0,1,268.035,86.811ZM67.859,159.775c-3.975,6.5-6.369,11.635-7.532,16.169a21.1,21.1,0,0,0-.674,7.769,13.062,13.062,0,0,0,2.862,6.787l.005.005.009.012.01.013,0,0,0,.006c4.726,5.764,10.607,12.938,15.164,12.938,4.1,0,8.782-1.384,13.928-4.115,8.168-4.314,17.972-11.8,30.386-21.281l.01-.007.019-.014.006-.005.015-.012.012-.009.011-.008.005,0,.014-.011.019-.014,0,0,.005,0,.006,0,.029-.022.01-.008.014-.011.039-.029.015-.012,0,0,.028-.022.006,0,.007-.005.009-.007c19.138-14.621,42.955-32.816,74.309-50.233,20.447-11.357,35.061-23.421,43.436-35.859,1.1-1.641,2.148-3.31,3.1-4.961a103.714,103.714,0,0,1-10.942,9.077c-3.761,2.741-7.927,5.488-12.738,8.4-8.962,5.423-18.762,10.565-28.238,15.537l0,0-.013.007-.07.037-.05.026-.032.017-.055.029-.006,0-.017.009-.017.009-.013.007-.019.01-.008,0-.07.037-.013.007-.18.095-.014.007-.015.008-.065.034-.021.011-.007,0-.091.048-.009,0-.1.055-.007,0-.155.081-.151.079-.068.036-.131.068-.019.01-.061.032-.048.025c-2.8,1.47-8.021,4.207-12.645,6.712-18.3,9.91-35.549,24.732-50.77,37.809l-.006,0-.005,0,0,0-.013.011-.008.007,0,0-.013.011,0,0-.006,0-.007.006-.005,0-.045.039-.033.029-.008.007-.031.026-.014.012-.017.015-.022.02-.021.017c-8.849,7.6-17.208,14.785-24.631,19.94-9.077,6.292-16.119,9.351-21.529,9.351a12.7,12.7,0,0,1-6.5-1.717,21.923,21.923,0,0,1-4.983-4.171c-2.637-2.806-3.785-6.527-3.615-11.71C64.938,172.038,66.388,165.767,67.859,159.775Zm105.315-2.9a1.014,1.014,0,0,0-.486.126,42.272,42.272,0,0,0-7.3,5.143,5.86,5.86,0,0,0-2.026,4.89c.465,6.019.9,11.729,1.333,17.456a.954.954,0,0,0,.975.891.935.935,0,0,0,.927-.716c1.6-6.088,4.205-15.625,7.55-26.482a.989.989,0,0,0-.147-.887A1.029,1.029,0,0,0,173.174,156.874Zm49.909-21.16a.957.957,0,0,0-.985.894c-1.094,12.863-1.612,27.874-1.823,35.677a4.819,4.819,0,0,0,1.377,3.52,4.891,4.891,0,0,0,3.533,1.493c.119,0,.281-.008.482-.023,7.3-.707,16.409-1.066,27.067-1.066,4.678,0,9.478.091,12.68.168h.013l.122,0a4.914,4.914,0,0,0,3.551-1.5,4.807,4.807,0,0,0,1.375-3.513c-.419-15.08-.262-28.092-.057-36.352a1.086,1.086,0,0,0-.3-.8,1.154,1.154,0,0,0-.845-.342,1.1,1.1,0,0,0-1.1.9c-2.423,11.51-4.692,22.749-5.829,28.424a4.954,4.954,0,0,1-4.874,3.934h-.108c-.816-.026-2.051-.039-3.671-.039-8.224,0-15.641.572-20.416,1.052-.214.018-.38.026-.51.026a4.962,4.962,0,0,1-3.1-1.089,4.9,4.9,0,0,1-1.725-2.8,277.543,277.543,0,0,1-3.882-27.68A.944.944,0,0,0,223.084,135.714ZM285.678,15.64h0a16.817,16.817,0,0,0-5.788,1.523,21.776,21.776,0,0,0-5.512,3.617,23.5,23.5,0,0,0-4.533,5.5,24.3,24.3,0,0,0-2.85,7.162,27.823,27.823,0,0,0,.176,12.423,43.572,43.572,0,0,0,6.788,14.683c7.952,11.568,21.792,22.941,41.134,33.8a492.34,492.34,0,0,1,43,27.279c12.59,8.88,23.34,17.181,32.825,24.5l.058.044.044.034.032.024.04.031.009.007.033.026.017.014.03.023.005,0,.024.018.021.015.005,0,.009.007.014.011.014.011.013.01.028.022.011.009c9.307,7.192,17.342,13.4,24.124,17.8a63.039,63.039,0,0,0,9.142,5.081,18.885,18.885,0,0,0,7.336,1.811,8.55,8.55,0,0,0,6.688-2.988,6.46,6.46,0,0,0,1.413-4.684,22.263,22.263,0,0,0-1.628-6.878c-1.857-4.879-5.362-11.146-10.419-18.629-2.353,3.214-4.249,5.265-5.635,6.094a13.769,13.769,0,0,1-7.06,1.984,13.478,13.478,0,0,1-9.515-3.971c-15.707-15.539-36.884-26.719-57.365-37.53l-.01-.005,0,0-.009,0-.014-.007-.01-.005-.01-.005-.01,0-.043-.023-.005,0c-31.568-16.666-61.385-32.408-68.925-62.438-1.931-7.692-1.407-14.087,1.559-19.008.756-1.251,2.487-3.943,4.749-7.386ZM83.213,137.957c-5.048,7.465-8.553,13.732-10.418,18.629a22.229,22.229,0,0,0-1.628,6.878,6.461,6.461,0,0,0,1.412,4.684,8.546,8.546,0,0,0,6.685,2.988,18.955,18.955,0,0,0,7.34-1.813,63.076,63.076,0,0,0,9.142-5.082c6.739-4.371,14.719-10.533,23.959-17.668l.018-.014.026-.021.029-.022.031-.024.019-.015.015-.012.015-.012.056-.043,0,0,.022-.016.008-.006.009-.006.044-.033.007-.005.03-.023.029-.023.024-.019.031-.024.032-.025.056-.043.047-.036.034-.026.041-.031,0,0c9.425-7.281,20.108-15.533,32.766-24.46a492.7,492.7,0,0,1,43-27.278c19.344-10.869,33.184-22.242,41.134-33.8a43.552,43.552,0,0,0,6.787-14.683,27.791,27.791,0,0,0,.176-12.422,24.2,24.2,0,0,0-2.85-7.162,23.748,23.748,0,0,0-4.532-5.5,21.722,21.722,0,0,0-5.512-3.617,17.069,17.069,0,0,0-5.788-1.523c2.253,3.431,4.028,6.192,4.749,7.386,2.967,4.906,3.492,11.3,1.561,19.008-7.539,30.031-37.369,45.779-68.95,62.451l-.014.007-.008,0-.013.006-.005,0-.013.007-.007,0c-20.489,10.815-41.675,22-57.4,37.546a13.475,13.475,0,0,1-9.513,3.971,13.776,13.776,0,0,1-7.061-1.984c-1.391-.832-3.287-2.882-5.636-6.094ZM290.433,13.023a.379.379,0,0,0-.32.179c-1.2,1.77-2.335,3.745-3.247,5.332l0,0-.014.022,0,.008-.012.021-.018.031-.016.028-.012.021-.022.038,0,.005-.005.009,0,.007-.012.02-.024.042,0,.007-.016.028-.006.011-.062.108-.007.013-.049.086-.01.018-.017.029,0,.006-.009.016-.054.094,0,.007-.02.035-.009.015c-.3.515-.676,1.17-.976,1.666C282.6,25.7,282.089,31.9,283.96,39.348c7.306,29.1,36.212,44.364,66.814,60.52l.008,0,.009,0,.019.01.013.006.013.005.013.006.025.013c19.846,10.479,40.367,21.316,55.585,36.369a13.061,13.061,0,0,0,9.219,3.847,13.448,13.448,0,0,0,6.843-1.922c1.325-.792,3.126-2.728,5.351-5.756-3.842,3.575-7.624,5.387-11.238,5.387a9.925,9.925,0,0,1-6.878-2.687,198.824,198.824,0,0,0-26.015-21.537,268.268,268.268,0,0,0-28.683-17.332c-30.6-16.151-59.5-31.407-66.807-60.515-1.817-7.252-.958-14.713,2.553-22.175a.379.379,0,0,0-.016-.377A.427.427,0,0,0,290.433,13.023ZM83.329,132.456h0c2.2,3.005,4,4.942,5.35,5.754a13.467,13.467,0,0,0,6.842,1.922,13.066,13.066,0,0,0,9.22-3.847c15.236-15.07,35.778-25.912,55.643-36.4l0,0,.006,0,.009,0,.008,0,.008,0,.012-.007c30.6-16.152,59.5-31.409,66.806-60.514,1.872-7.456,1.363-13.653-1.512-18.419-.262-.434-.6-1.011-1-1.715l-.028-.049-.033-.058-.008-.013-.02-.035,0-.005-.063-.11,0,0-.062-.108,0-.008-.009-.016-.007-.013,0-.005-.017-.03-.023-.041-.009-.016-.016-.026-.012-.02c-.922-1.609-2.068-3.607-3.317-5.454a.382.382,0,0,0-.32-.179.429.429,0,0,0-.354.2.382.382,0,0,0-.017.378c3.512,7.475,4.371,14.936,2.555,22.175-7.306,29.1-36.213,44.364-66.817,60.52a267.946,267.946,0,0,0-28.674,17.327,198.811,198.811,0,0,0-26.016,21.537,9.924,9.924,0,0,1-6.877,2.687C90.949,137.842,87.169,136.03,83.329,132.456ZM82.6,94.065c-.245,0-1.039,1.341-2.179,3.678a122.763,122.763,0,0,0-6.739,16.749,13.078,13.078,0,0,0,1.947,11.9c.207.278.713,1.087,1.18,1.841l.007.012,0,0,.01.015.024.04.041.065,0,.005.025.04.022.036.014.022.248.4.057.09c.184.3.381.612.587.942.618.988,1.077,1.532,1.291,1.532a.1.1,0,0,0,.087-.045c.137-.186,0-.955-.391-2.224-.272-.882-.626-1.93-1.05-3.115l-.01-.029-.007-.02-.012-.033,0-.007-.022-.062,0-.005-.015-.044-.008-.023-.008-.022-.021-.057,0-.005,0-.014c-1.131-3.177-2.108-5.921-1.75-8.527.379-2.729,3.11-11.965,5.62-19.006.854-2.4,1.258-3.894,1.107-4.107A.057.057,0,0,0,82.6,94.065ZM308.752,7.946c-5.129,0-8.827,1.407-10.991,4.182-2.4,3.074-2.833,7.746-1.292,13.884a47.9,47.9,0,0,0,3.466,9.439,53.386,53.386,0,0,0,5.245,8.487A78.467,78.467,0,0,0,320.1,58.661c11.643,9.032,26.01,16.614,41.22,24.641l.009.005.013.007.021.011.014.007.011.005.011.005.012.006.009,0,.013.007c21.018,11.1,42.752,22.569,59.309,38.948a5.312,5.312,0,0,0,3.788,1.606,5.72,5.72,0,0,0,4.529-2.307,5.178,5.178,0,0,0,.733-4.731A129.28,129.28,0,0,0,414.179,84.95c-9.232-14.006-21.471-27.794-36.378-40.98a201.662,201.662,0,0,0-19-14.9A171.744,171.744,0,0,0,340,17.719a110.12,110.12,0,0,0-17.16-7.234A48.224,48.224,0,0,0,308.752,7.946Zm-106.306,0a48.213,48.213,0,0,0-14.083,2.539A109.95,109.95,0,0,0,171.2,17.72a171.575,171.575,0,0,0-18.8,11.353,202.849,202.849,0,0,0-19,14.9c-14.912,13.191-27.152,26.978-36.378,40.98A129.229,129.229,0,0,0,81.4,116.878a5.175,5.175,0,0,0,.734,4.732,5.718,5.718,0,0,0,4.529,2.306,5.312,5.312,0,0,0,3.788-1.606c16.562-16.383,38.321-27.87,59.363-38.978l.01,0,.008,0,.023-.012.013-.006.011-.005.018-.009.009,0,.02-.01.013-.006.026-.013.011-.005c15.182-8.019,29.521-15.594,41.114-24.59a78.655,78.655,0,0,0,14.924-14.722,53.473,53.473,0,0,0,5.245-8.487,47.772,47.772,0,0,0,3.466-9.439c1.541-6.131,1.107-10.8-1.291-13.885C211.273,9.353,207.575,7.946,202.446,7.946Z" transform="translate(17.967 19.137)" fill="#020203"/>
      <path id="Fill_16" data-name="Fill 16" d="M28.479.646C18.593,13.466,4.22,19.192.135,35.848c-.83,3.384,2.335,4.638,4.737,2.114,7.245-7.614,19.553-19.954,26.369-35.724A1.606,1.606,0,0,0,28.479.646" transform="translate(335.705 585.29)" fill="#020203"/>
      <path id="Fill_18" data-name="Fill 18" d="M136.893.372a73.687,73.687,0,0,1-26.445,5.713,16.863,16.863,0,0,0-10.016,3.808c-3.867,3.114-11.786,6.945-27.342,6.945-16.623,0-26.215-6.249-31.006-10.818A19.863,19.863,0,0,0,29.923.66L22.648.084a3.682,3.682,0,0,0-3.229,5.895q.488.636,1.027,1.315a2.171,2.171,0,0,1-1.731,3.529A52.3,52.3,0,0,1,3.6,8.441a2.7,2.7,0,0,0-2.86,4.376C8.5,21.184,19.284,26.258,34.689,26.464A27.682,27.682,0,0,1,46.86,29.431a59.7,59.7,0,0,0,27.3,6.672c28.79,0,48.073-6.512,67.574-29.248A4.147,4.147,0,0,0,136.893.372" transform="translate(194.417 600.114)" fill="#020203"/>
      <path id="Fill_20" data-name="Fill 20" d="M27.968,36.629a19.21,19.21,0,0,1-.363-4.358A4.094,4.094,0,0,0,27.423,31q-.187-.545.545-.545-.366-5.082-.727-10.17t-1.089-10.17L23.973,1.4C23.485.188,22.7-.237,21.612.125A23.471,23.471,0,0,0,18.524,1.4a6.18,6.18,0,0,0-2.906,2.361q-1.089,1.635-2.179,3.45c-.97,1.453-1.878,2.85-2.724,4.177s-1.76,2.724-2.725,4.178a14.367,14.367,0,0,0-1.633,4.176c-.364,1.578-.789,3.087-1.272,4.54a39.009,39.009,0,0,0-1.09,4.9,27.94,27.94,0,0,1-1.089,4.541A73.618,73.618,0,0,0,1.452,43.53Q1.087,48.255.364,53.337q0,2.546-.182,5.085C.057,60.119,0,61.816,0,63.507v4.359a6.245,6.245,0,0,0,1.452,3.995A13.178,13.178,0,0,0,3.995,75.13a7.23,7.23,0,0,0,3.632,2.18c1.209.488,2.418,0,3.633-1.453s2.055-2.542,2.542-3.269q2.9-4.359,5.993-9.626t3.451-5.993c.239-.483.545-1.027.908-1.634s.664-1.146.908-1.635A26.548,26.548,0,0,0,26.7,48.434q.544-2.725,1.271-5.63a9.5,9.5,0,0,0,.182-3.088,21.61,21.61,0,0,1-.182-3.087" transform="translate(848.824 446.131)" fill="#020203"/>
      <path id="Fill_22" data-name="Fill 22" d="M19.833.829A4.294,4.294,0,0,0,15.292.466q-2.724,1.089-4.539,1.816A20.289,20.289,0,0,1,7.12,3.371a20.832,20.832,0,0,0-3.633,1.09.744.744,0,0,0-.545.181,1.42,1.42,0,0,1-.908.182,1.049,1.049,0,0,1-.726.363,1.045,1.045,0,0,0-.725.364c-.488.488-.67.908-.545,1.271a.834.834,0,0,0,.906.545,7.361,7.361,0,0,0,2.362.363,7.5,7.5,0,0,1,2.361.364,81.7,81.7,0,0,1,9.807,2.178c0-.482.119-.664.363-.545a2.446,2.446,0,0,0,1.09.182,5.052,5.052,0,0,0,2.179-.363,15.642,15.642,0,0,0,3.27-1.816q2.9-1.814.908-3.814A35.006,35.006,0,0,0,19.833.829" transform="translate(1552.501 330.106)" fill="#020203"/>
      <path id="Fill_24" data-name="Fill 24" d="M1.939,11.379a7.971,7.971,0,0,1,1.453,2.543,15.291,15.291,0,0,0,2.9,3.995q1.813,1.823,3.633,3.632a14.334,14.334,0,0,0,4.723,3.633c.726.487,1.391.969,2,1.452a6.253,6.253,0,0,0,2,1.09,20.909,20.909,0,0,1,4.178,1.816c1.816.971,2.6.852,2.361-.363a40.74,40.74,0,0,0-3.269-13.44,37.782,37.782,0,0,0-6.174-9.443A14.741,14.741,0,0,0,8.839.483,5.442,5.442,0,0,0,5.388.119,5.69,5.69,0,0,0,2.3,1.572a3.143,3.143,0,0,0-1.09,2.179A13.874,13.874,0,0,0,.123,6.657,3.029,3.029,0,0,0,.486,9.2a8.226,8.226,0,0,0,1.453,2.18" transform="translate(1087.325 437.239)" fill="#020203"/>
      <path id="Fill_26" data-name="Fill 26" d="M9.444,59.737q.723-2.9,1.271-5.63t1.271-5.63a26.392,26.392,0,0,1,1.09-4.721,14.907,14.907,0,0,0,.726-4.722q.359-5.448,1.09-10.715t1.09-10.352a38.34,38.34,0,0,1,.363-5.448,20.763,20.763,0,0,0,0-5.448q-.366-1.448-.726-3.814A3.621,3.621,0,0,0,13.439.17,2.524,2.524,0,0,0,9.989,1.8Q9.078,4.171,8.354,5.981a61.864,61.864,0,0,0-2.543,10.17Q4.724,21.6,3.269,27.048a85.918,85.918,0,0,0-2.179,10.9A110.48,110.48,0,0,0,.181,49.385Q0,55.381,0,60.827a47.491,47.491,0,0,1,.363,5.811A46.391,46.391,0,0,0,.726,72.45a32.39,32.39,0,0,1,.545,5.266q.178,3.814,2,4.178,1.814-5.449,3.269-11.079T9.444,59.737" transform="translate(765.648 358.37)" fill="#020203"/>
      <path id="Fill_28" data-name="Fill 28" d="M4.154,0H0V41.164H4.682c10.8,0,13.068-8.46,13.068-21.375C17.75,3.247,12.991,0,4.154,0" transform="translate(792.995 662.674)" fill="#020203"/>
      <path id="Fill_30" data-name="Fill 30" d="M10.272,0C1.887,0,0,8.686,0,21.828c0,13.218,1.737,21.9,10.272,21.9s10.271-8.686,10.271-21.9C20.543,8.686,18.731,0,10.272,0" transform="translate(737.781 661.39)" fill="#020203"/>
      <path id="Fill_32" data-name="Fill 32" d="M1087.931,444.279h-1075a169.881,169.881,0,0,0,1.693-23.092A109.981,109.981,0,0,0,12.9,400.87a38.732,38.732,0,0,0-3.946-11.06A132.922,132.922,0,0,1,0,366.683c.372.029.754.045,1.137.045a14.257,14.257,0,0,0,7.091-1.89,68.21,68.21,0,0,0,15.359-12.37A22.646,22.646,0,0,0,28.6,343.5H930.221a21.163,21.163,0,0,1-4.66-1.687,16.955,16.955,0,0,1-4.418-3.183l-.727-.727a17.072,17.072,0,0,1-1.584-1.827c-.061-.082-.122-.163-.184-.243l-.079-.1a19.923,19.923,0,0,1-6.467-5.952H32.568c4.823-17.54,7.758-32.147,8.725-43.414a53.8,53.8,0,0,0,11.582-7.748,48.025,48.025,0,0,0,14.3-22.184,53.234,53.234,0,0,0,2.242-13.73c3.523-3.515,5.761-7.741,7.259-13.7H192.689c-1.158-3.266-2.279-6.439-3.429-9.7-.031-.087-.061-.172-.09-.262-.366-1.091-.76-2.287-1.241-3.763H78.824c.4-3.942.753-8.429,1.127-13.18l0-.019.006-.074,0-.037c.431-5.475.92-11.68,1.578-18.944l18.908-8.581a20.042,20.042,0,0,0,9.157-8.352c8.445-14.755,12.787-32.113,12.907-51.592h32.223a86.94,86.94,0,0,1-2.868-11.591c-.074-.419-.156-.851-.229-1.233q-.086-.449-.169-.9H121.913a151.206,151.206,0,0,0-5.89-30.184A22.789,22.789,0,0,0,106.864,58.4c-4.274-2.837-8.315-5.4-11.688-7.419C94.254,44.864,91.065,23.117,88.69,0H1472.17l-30.713,49.538a107.645,107.645,0,0,1-92.056,51.239h-231.17c-.233,1.924-.477,3.969-.745,6.25,0,.025-.006.049-.009.074s-.005.047-.008.07c-.3,2.414-.718,4.88-1.23,7.33h268.773L1354.3,164.039a107.649,107.649,0,0,1-92.056,51.239h-41.574c-1.094,2.169-2.4,4.721-3.986,7.8L1213.624,229h84.232l-30.713,49.537a107.648,107.648,0,0,1-92.056,51.239H1087.3l-.146.131,0,0c-.085.077-.174.157-.264.233a54.719,54.719,0,0,1-15.876,9.7,47.894,47.894,0,0,1-17.453,3.3c-1.1,0-2.219-.038-3.324-.114-11.919-.819-23.135-5.276-33.334-13.248H953.593c-.263.633-.549,1.257-.847,1.856-.018.036-.037.073-.057.11a23.182,23.182,0,0,1-1.534,2.639c-.043.076-.095.163-.152.257a19.038,19.038,0,0,1-11.938,8.862H1210.7l-30.714,49.538A107.642,107.642,0,0,1,1087.931,444.279ZM684.786,365.237a15.015,15.015,0,0,0-8.069,2.112,14.805,14.805,0,0,0-5.159,5.724c-2.349,4.385-3.54,10.643-3.54,18.6,0,8.39,1.3,14.975,3.871,19.572a14.51,14.51,0,0,0,13.5,7.846,20.234,20.234,0,0,0,6.032-1.105,16.4,16.4,0,0,0,5.3-2.747c.68-.529.68-1.069.68-1.965v-7.854c0-.593-.287-.907-.831-.907H693.1c-.544,0-.832.314-.832.907v6.495l-.086.049-.024.014-.068.039-.015.009-.013.007-.039.023a12.322,12.322,0,0,1-6.477,1.975,7.763,7.763,0,0,1-4.926-1.646,11.594,11.594,0,0,1-3.326-4.67c-1.642-3.852-2.474-9.5-2.474-16.8,0-7.056.645-11.853,2.03-15.1,1.587-3.717,4.233-5.523,8.091-5.523a13.113,13.113,0,0,1,6.837,2.047l.111.068v6.42c0,.594.287.907.832.907h3.474c.544,0,.832-.314.832-.907v-8.383a1.542,1.542,0,0,0-.756-1.435A18.665,18.665,0,0,0,684.786,365.237Zm-364.514,0A14.232,14.232,0,0,0,307.2,372.62c-2.657,4.531-4,11.093-4,19.5s1.337,14.975,3.974,19.516a15.209,15.209,0,0,0,26.162,0c2.656-4.557,4-11.123,4-19.516,0-8.368-1.356-14.92-4.031-19.476A14.229,14.229,0,0,0,320.271,365.237Zm720.873,47.886a.8.8,0,0,0-.907.906v3.1a.8.8,0,0,0,.907.907h16.087c6.373,0,10.367-.457,13.218-2.87a14.63,14.63,0,0,0,4.986-11.406,16.534,16.534,0,0,0-.91-5.735,10.622,10.622,0,0,0-2.291-3.716,13.575,13.575,0,0,0-6.089-3.389,14.181,14.181,0,0,0,4.673-3.662,13.369,13.369,0,0,0,2.8-8.649,13.822,13.822,0,0,0-1.552-6.863,9.366,9.366,0,0,0-3.839-3.683c-2.938-1.556-6.522-1.766-9.64-1.766h-17.447a.8.8,0,0,0-.907.907v3.1a.8.8,0,0,0,.907.907h4.757v41.919Zm-30.213,0a.8.8,0,0,0-.907.906v3.1a.8.8,0,0,0,.907.907h15.257a.8.8,0,0,0,.906-.907v-3.1a.8.8,0,0,0-.906-.906h-3.777l-13.973-46c-.3-.831-.529-.831-1.133-.831h-4.456c-.818,0-.9.062-1.133.831l-14.049,46h-3.7a.8.8,0,0,0-.906.906v3.1a.8.8,0,0,0,.906.907h15.181a.8.8,0,0,0,.906-.907v-3.1a.8.8,0,0,0-.906-.906h-4.834l2.87-10.5h15.484l2.945,10.5Zm-70.4,0a.8.8,0,0,0-.906.906v3.1a.8.8,0,0,0,.906.907h27.645a1.117,1.117,0,0,0,1.133-.831l3.474-9.592c.016-.044.038-.1.076-.19l.005-.013a1.35,1.35,0,0,0,.146-.553.788.788,0,0,0-.6-.755l-3.1-1.133a3.334,3.334,0,0,1-.413-.119l-.013,0-.013,0-.018-.005-.013,0-.009,0a1.375,1.375,0,0,0-.428-.087c-.331,0-.541.186-.68.6l-2.643,7.4h-13.6V371.2h4.758a.8.8,0,0,0,.906-.907v-3.1a.8.8,0,0,0-.906-.907h-15.71a.8.8,0,0,0-.906.907v3.1a.8.8,0,0,0,.906.907H945.3v41.919Zm-70.924,0a.8.8,0,0,0-.906.906v3.1a.8.8,0,0,0,.906.907h16.918a.8.8,0,0,0,.907-.907v-3.1a.8.8,0,0,0-.907-.906h-5.363V371.581h8.007v8.535c0,.636.248.907.83.907h3.476c.543,0,.831-.314.831-.907V367.351c0-.82-.22-1.057-.982-1.057H862.89c-.7,0-1.058.33-1.058.982v12.84a.8.8,0,0,0,.906.907h3.325a.8.8,0,0,0,.906-.907v-8.535h8.005v41.542Zm-49.927,0a.8.8,0,0,0-.907.906v3.1a.8.8,0,0,0,.907.907h16.541a.8.8,0,0,0,.906-.907v-3.1a.8.8,0,0,0-.906-.906h-5.589V394.164h14.8c.836,0,.983-.147.983-.981V389.86c0-.836-.147-.983-.983-.983h-14.8v-17.3h13.369v6.042c0,.594.287.907.83.907h3.475c.543,0,.831-.314.831-.907V367.351c0-.806-.135-1.057-.983-1.057H819.686a.8.8,0,0,0-.907.907v3.1a.8.8,0,0,0,.907.907h4.758v41.919Zm-30.213,0a.8.8,0,0,0-.907.906v3.1a.8.8,0,0,0,.907.907H804.73a.8.8,0,0,0,.906-.907v-3.1a.8.8,0,0,0-.906-.906h-3.776l-13.973-46c-.3-.831-.528-.831-1.133-.831h-4.456c-.818,0-.9.062-1.133.831l-14.049,46h-3.7a.8.8,0,0,0-.906.906v3.1a.8.8,0,0,0,.906.907H777.69a.8.8,0,0,0,.906-.907v-3.1a.8.8,0,0,0-.906-.906h-4.834l2.87-10.5H791.21l2.945,10.5Zm-65.109-18.656H729.8L741.736,417.2a1.386,1.386,0,0,0,1.36.831h7.4a.8.8,0,0,0,.905-.907v-3.1a.8.8,0,0,0-.905-.906h-3.7l-10.65-19.185a12.844,12.844,0,0,0,7.336-5.107,15.23,15.23,0,0,0,2.634-8.79,17.067,17.067,0,0,0-1.578-7.788,9.755,9.755,0,0,0-3.908-4.1c-3.028-1.716-6.671-1.859-9.848-1.859H713.412a.8.8,0,0,0-.906.907v3.1a.8.8,0,0,0,.906.907h4.759v41.919h-4.759a.8.8,0,0,0-.906.906v3.1a.8.8,0,0,0,.906.907H729.2a.8.8,0,0,0,.907-.907v-3.1a.8.8,0,0,0-.907-.906h-4.834V394.468Zm-95.094,0h5.437L646.642,417.2a1.384,1.384,0,0,0,1.359.831h7.4a.8.8,0,0,0,.906-.907v-3.1a.8.8,0,0,0-.906-.906h-3.7l-10.65-19.185a12.847,12.847,0,0,0,7.337-5.107,15.23,15.23,0,0,0,2.634-8.79,17.067,17.067,0,0,0-1.578-7.788,9.757,9.757,0,0,0-3.909-4.1c-3.027-1.716-6.67-1.859-9.847-1.859H618.317a.8.8,0,0,0-.906.907v3.1a.8.8,0,0,0,.906.907h4.759v41.919h-4.759a.8.8,0,0,0-.906.906v3.1a.8.8,0,0,0,.906.907H634.1a.8.8,0,0,0,.906-.907v-3.1a.8.8,0,0,0-.906-.906H629.27V394.468Zm-46.454,18.656a.8.8,0,0,0-.905.906v3.1a.8.8,0,0,0,.905.907h19.941a.8.8,0,0,0,.906-.907v-3.1a.8.8,0,0,0-.906-.906h-6.874V371.2h6.874a.8.8,0,0,0,.906-.907v-3.1a.8.8,0,0,0-.906-.907H582.817a.8.8,0,0,0-.905.907v3.1a.8.8,0,0,0,.905.907h6.873v41.919Zm-28.928,0a.8.8,0,0,0-.907.906v3.1a.8.8,0,0,0,.907.907h15.257a.8.8,0,0,0,.906-.907v-3.1a.8.8,0,0,0-.906-.906h-3.776l-13.973-46c-.3-.831-.528-.831-1.133-.831h-4.456c-.818,0-.9.062-1.133.831l-14.049,46h-3.7a.8.8,0,0,0-.906.906v3.1a.8.8,0,0,0,.906.907h15.181a.8.8,0,0,0,.907-.907v-3.1a.8.8,0,0,0-.907-.906h-4.834l2.871-10.5h15.483l2.945,10.5Zm-101.817,0a.8.8,0,0,0-.905.906v3.1a.8.8,0,0,0,.905.907h27.645a1.116,1.116,0,0,0,1.133-.831l3.474-9.592c.016-.048.039-.107.07-.179l0-.012.006-.013a1.293,1.293,0,0,0,.146-.552.788.788,0,0,0-.6-.755l-3.1-1.133a3.2,3.2,0,0,1-.383-.108l-.005,0-.013,0-.011,0a1.422,1.422,0,0,0-.494-.109c-.332,0-.541.186-.679.6l-2.644,7.4h-13.6V371.2h4.758a.8.8,0,0,0,.905-.907v-3.1a.8.8,0,0,0-.905-.907H452.072a.8.8,0,0,0-.905.907v3.1a.8.8,0,0,0,.905.907h4.759v41.919Zm-45.392,0a.8.8,0,0,0-.907.906v3.1a.8.8,0,0,0,.907.907h28.928c.819,0,1.057-.139,1.057-1.058V405.948c0-.543-.313-.831-.905-.831h-3.4a.724.724,0,0,0-.831.831v6.8h-13.9V393.636h14.8c.835,0,.982-.147.982-.981V389.33c0-.834-.147-.981-.982-.981h-14.8V371.581H431v6.042c0,.594.287.907.83.907H435.3c.544,0,.832-.314.832-.907V367.351c0-.806-.136-1.057-.984-1.057H406.679a.8.8,0,0,0-.907.907v3.1a.8.8,0,0,0,.907.907h4.757v41.919Zm-52.42,0a.8.8,0,0,0-.905.906v3.1a.8.8,0,0,0,.905.907H368.61a26.544,26.544,0,0,0,9.805-1.59,14.975,14.975,0,0,0,6.548-4.848,20.991,20.991,0,0,0,3.658-8.219,51.328,51.328,0,0,0,1.138-11.7c0-10.441-2.035-17.4-6.222-21.271a14.334,14.334,0,0,0-6.493-3.36,31.724,31.724,0,0,0-7.6-.747H354.26a.8.8,0,0,0-.905.907v3.1a.8.8,0,0,0,.905.907h4.759v41.919Zm-80.972,0a.8.8,0,0,0-.905.906v3.1a.8.8,0,0,0,.905.907h15.484a.8.8,0,0,0,.906-.907v-3.1a.8.8,0,0,0-.906-.906h-4.229L282.2,371.2h5.287a.8.8,0,0,0,.908-.907v-3.1a.8.8,0,0,0-.908-.907H276.31a.923.923,0,0,0-.983.755l-8.912,26.059a26.062,26.062,0,0,0-.982,4.682h-.152a29.285,29.285,0,0,0-.981-4.682l-8.914-26.059a.92.92,0,0,0-.982-.755H243.227a.8.8,0,0,0-.907.907v3.1a.8.8,0,0,0,.907.907h5.287l-2.343,41.919h-4.23a.8.8,0,0,0-.905.906v3.1a.8.8,0,0,0,.905.907h15.485a.8.8,0,0,0,.906-.907v-3.1a.8.8,0,0,0-.906-.906H252.14l.981-32.478c.05-1.922.033-3.418.017-4.865v-.007l0-.17c-.007-.679-.015-1.381-.015-2.134h.15a19.708,19.708,0,0,0,.907,5.362l8.762,26.285c.223.668.445.831,1.132.831h2.266c.687,0,.91-.163,1.133-.831l9.064-26.285a19.736,19.736,0,0,0,.906-5.362h.151c0,.8-.008,1.569-.016,2.25v.081c-.016,1.448-.033,2.946.017,4.844l.982,32.478ZM922,306.937c1.676,0,2.623,1.057,2.814,3.14a1.05,1.05,0,0,0,.363.726,14.418,14.418,0,0,1,.545,2.361,2.675,2.675,0,0,0,1.633,2,7.333,7.333,0,0,1,2.906,2c.731.855,1.465,1.771,2.18,2.723l.726.726a3.238,3.238,0,0,0,1.481.408,2.044,2.044,0,0,0,1.789-1.134,3.849,3.849,0,0,1,.545-.907,4.453,4.453,0,0,0,.545-.908,5.65,5.65,0,0,0,.725-2.18c.234-1.17.417-2.392.544-3.632s.309-2.462.545-3.633a8.106,8.106,0,0,1,.182-1.633,8.983,8.983,0,0,0,.181-1.635,7.414,7.414,0,0,0-.363-2.18,4.5,4.5,0,0,1,0-2.541v-6.539c0-2.121-.122-4.443-.364-6.9-.239-2.6-.422-5.168-.544-7.627-.121-2.367-.182-4.933-.182-7.628a14.26,14.26,0,0,1-.183-3.994c.123-1.591.183-2.9.183-4,.243-2.705.488-5.211.726-7.447a38.923,38.923,0,0,0,0-7.446V235.617a49.157,49.157,0,0,0,.364-5.994,46.733,46.733,0,0,1,.363-5.993,76.7,76.7,0,0,0,.727-10.715c0-3.591-.122-7.319-.363-11.078v-3.268a17.888,17.888,0,0,1,.363-3.27,1.832,1.832,0,0,1,.456-1.359,1.86,1.86,0,0,1,1.36-.456,11.013,11.013,0,0,0,3.27.364,16.265,16.265,0,0,0,2.45.183,13.072,13.072,0,0,0,2.27-.183,28.619,28.619,0,0,0,4.361-1.091,13.729,13.729,0,0,1,4.359-.725,6.859,6.859,0,0,1,4.358,1.816,8.476,8.476,0,0,0,2.18,1.452,10.916,10.916,0,0,1,4.722,5.085,8.823,8.823,0,0,1,1.09,1.817c.951,1.913,1.928,3.685,2.9,5.266s2.077,3.243,3.27,4.9c.775,1.3,1.509,2.586,2.18,3.814A26.2,26.2,0,0,0,982.2,220l5.448,8.717c.489,1.235.965,2.3,1.454,3.27l.028.056c.46.923.915,1.836,1.425,2.849-.241.242-.363.425-.363.545s-.119.3-.364.545a4.02,4.02,0,0,0,.364,1.816c.471,1.907,1.082,3.923,1.816,5.993s1.469,4.1,2.18,5.994c1.468,3.435,2.872,6.856,4.175,10.17s2.586,6.743,3.815,10.169a26.338,26.338,0,0,0,2,5.449c.851,1.7,1.767,3.411,2.723,5.085,2.406,4.815,5.156,10.009,8.173,15.437a45.031,45.031,0,0,0,11.443,13.621,49.118,49.118,0,0,0,12.029,7.308,40.56,40.56,0,0,0,12.85,3.044c.9.051,1.645.077,2.223.077a30.819,30.819,0,0,0,11.565-2.243,38.066,38.066,0,0,0,10.729-6.733c1.206-.968,1.817-2.556,1.817-4.721a3.515,3.515,0,0,0-2.542-2.907,3.9,3.9,0,0,0-2.421-.969,3.213,3.213,0,0,0-1.211.244c-.673.132-1.471.292-2.233.445l-.009,0-.221.044-.042.008-.1.02-.359.072-.042.008-.25.051-.087.018-.292.058c-1.355.268-2.455.487-3.46.692l-.064.013-.109.022a27.249,27.249,0,0,1-4.357.364h-4a16.04,16.04,0,0,1-2.543-.182,15.236,15.236,0,0,0-2.541-.182,3.41,3.41,0,0,1-2.18-1.816,17.978,17.978,0,0,0-2.181-2.542l-1.453-1.453L1043.581,297a12.84,12.84,0,0,1-2.543-4.721c-.273-.952-.574-2.008-1.194-4.184l-.037-.129-.185-.652-.034-.121c-2.669-12.61-4.991-23.853-6.9-33.415a217.332,217.332,0,0,0-6.719-25.97,86.827,86.827,0,0,0-9.988-20.7,78.695,78.695,0,0,0-16.708-17.617,61.685,61.685,0,0,0-10.535-6.9,2.856,2.856,0,0,1-1.593-1.726,1.9,1.9,0,0,1,.5-1.543A21.745,21.745,0,0,1,996,173.87a23.593,23.593,0,0,0,4.359-2,23.846,23.846,0,0,1,4.36-2,20.687,20.687,0,0,0,3.267-1.634c.923-.575,1.9-1.247,2.907-2a44.981,44.981,0,0,0,7.082-6.356c2.038-2.28,4.055-4.663,5.994-7.083a106.976,106.976,0,0,0,8.717-10.9c.719-1.2,1.513-2.421,2.361-3.632a17.964,17.964,0,0,0,2-3.633,30.79,30.79,0,0,1,7.264-10.9c.245-.246.363-.424.363-.545,0-.138.122-.322.363-.545a42.689,42.689,0,0,1,1.635-4.721,43.924,43.924,0,0,0,1.635-4.722c.482-2.665,1.032-5.353,1.635-7.991a35.912,35.912,0,0,0,.908-7.99,22.159,22.159,0,0,0-1.09-6.9c-.713-1.9-1.507-3.8-2.362-5.63a18.905,18.905,0,0,0-3.815-5.267,9.75,9.75,0,0,1-1.815-2.543c-.337-.665-.657-1.305-1.039-2.075l-.033-.066-.109-.219-.092-.184-.01-.02-.01-.019-.16-.322c-1.42-2.133-2.947-4.272-4.539-6.358-1.568-2.042-3.218-4.058-4.9-5.993-2.178-2.45-3.858-4.355-5.447-6.175a42.366,42.366,0,0,0-5.813-5.448,22.463,22.463,0,0,0-12.349-5.448c-1.3,0-2.585-.062-3.813-.183a34.941,34.941,0,0,1-3.814-.545l-.3-.089-.939-.282-.524-.157-1.233-.37-.254-.077-1.65-.495-2.366-.71a72.99,72.99,0,0,0-7.629-1.816,60.261,60.261,0,0,0-8.353-1.635c-2.8-.349-5.73-.654-8.717-.908-2.531,0-5.28-.061-8.172-.181-2.79-.121-5.54-.182-8.174-.182-2.155,0-4.415.061-6.718.182s-4.554.309-6.721.545c-1.329.225-2.856.469-4.539.725-1.02.158-2.251.355-4.541.727a13.179,13.179,0,0,1-3.449.908,13.773,13.773,0,0,0-3.451.908,65.663,65.663,0,0,0-7.99,2,53.946,53.946,0,0,0-7.629,3.088c-.984.494-1.9.982-2.722,1.452a10.511,10.511,0,0,1-2.725,1.09,29.1,29.1,0,0,0-9.807,5.085c-1.968,1.723-3.923,3.373-5.811,4.9-1.909,1.553-3.864,3.2-5.811,4.9a34.214,34.214,0,0,0-3.088,3.632,25.463,25.463,0,0,0-2.724,4.54,11.348,11.348,0,0,0-1.09,4.722,6.456,6.456,0,0,0,2.18,4.541c1.472,1.476,2.827,2.225,4.028,2.225a2.537,2.537,0,0,0,.513-.046,6.821,6.821,0,0,0,3.631-2c1.081-1.082,2.181-2.3,3.269-3.633a13.621,13.621,0,0,1,3.452-3.087c.93-.463,1.821-.938,2.725-1.453.875-.5,1.668-.989,2.359-1.453a2.466,2.466,0,0,0,1.09-.182,2.588,2.588,0,0,1,1.09-.181c1.213-.237,2.374-.421,3.451-.545s2.223-.3,3.451-.545h1.451a5.117,5.117,0,0,1,.365,2.179,13.542,13.542,0,0,0-.545,2.362,14.267,14.267,0,0,1-.545,2.36,37.026,37.026,0,0,0-.725,9.626,46.648,46.648,0,0,1-.363,9.625,171.581,171.581,0,0,0-2.181,21.43c-.242,2.148-.426,4.776-.545,7.809-.084,2.067-.177,4.414-.292,7.388l0,.06-.005.139V133l-.025.653-.007.186-.024.643-.006.165q-.105,2.657-.206,5.254l-.016.411q-.07,1.813-.141,3.6c-.121,2.91-.182,5.537-.182,7.809-.484,4.322-.789,8.783-.908,13.258-.125,4.411-.309,8.871-.545,13.257a9.148,9.148,0,0,1-.363,3.451c-.145.217-.6.328-1.355.328a14.582,14.582,0,0,1-1.914-.146h-.726a26.464,26.464,0,0,0-3.268-1.09,13.736,13.736,0,0,1-2.906-1.09,10.278,10.278,0,0,0-2.588-.482,1.627,1.627,0,0,0-.682.119,13.225,13.225,0,0,1-3.269.908c-.957.124-2.057.307-3.269.545a2.506,2.506,0,0,0-2.18,1.634c-.243.847.124,1.763,1.09,2.724a9.956,9.956,0,0,0,5.449,3.633c2.225.743,4.425,1.414,6.539,2,2.182.611,4.382,1.283,6.538,2,1.928.488,2.905,1.588,2.905,3.27,0,2.11.061,4.127.183,5.993.12,2.234.181,4.25.181,5.992,0,2.257.061,4.518.182,6.72.121,2.365.182,4.626.182,6.72,0,1.867-.061,3.884-.182,5.993-.121,1.97-.182,3.986-.182,5.993,0,1.512.061,3.039.182,4.54.118,1.531.3,3.059.545,4.539a1.708,1.708,0,0,1-.089,1.331.538.538,0,0,1-.439.184,1.61,1.61,0,0,1-.38-.061,1.24,1.24,0,0,0-.387-.059c-.6,0-.886.495-.886,1.512a33.267,33.267,0,0,1,.183,5.992c-.121,1.868-.183,3.885-.183,5.994,0,2.87-.061,5.986-.181,9.262a78.944,78.944,0,0,0,.181,9.262c0,2.894.061,5.643.183,8.173.111,2.7.294,5.452.544,8.172h.363a6.4,6.4,0,0,1,.364,2,6.312,6.312,0,0,0,.364,2,3.221,3.221,0,0,0,.364,1.453c.147.3.3.6.446.895l.056.112.005.011.218.435a7.74,7.74,0,0,0,2.905,3.269,8.316,8.316,0,0,0,4.359,1.089,34.039,34.039,0,0,1,3.633.183,6.143,6.143,0,0,1,3.633,2A4.787,4.787,0,0,0,918.4,307.5a6.962,6.962,0,0,0,2.047-.327A5.514,5.514,0,0,1,922,306.937ZM181.5,26.923a6.006,6.006,0,0,0-3.449,1.3c-1.659,1.188-3.126,2.165-4.359,2.905-1.888.945-3.66,1.923-5.266,2.907a25.123,25.123,0,0,0-4.541,3.632,12.814,12.814,0,0,0-3.087,3.451,6.24,6.24,0,0,0-.182,4.541c.731,4.151,1.281,8.245,1.635,12.168.363,3.989.912,8.083,1.633,12.167.738,4.175,1.533,8.207,2.362,11.985.859,3.942,1.654,7.975,2.361,11.986a68.554,68.554,0,0,0,3.087,11.624c1.2,3.279,2.566,6.962,4.177,11.26,1.2,3.608,2.3,7.335,3.271,11.078.967,3.768,2.066,7.617,3.268,11.442.914,3.682,1.953,7.531,3.088,11.441,1.087,3.751,2.371,7.6,3.814,11.442l8.716,22.883c1.16,3.487,2.382,7.275,3.633,11.26,1.273,4.08,2.5,7.868,3.631,11.26,1.743,4.937,2.914,8.246,4.177,11.805,1.331,3.754,2.859,7.481,4.541,11.078,1.667,3.82,3.438,7.547,5.266,11.078a91.421,91.421,0,0,1,4.9,11.441l.065.182.051.143.043.121.045.127.073.206.022.059.237.664.068.19.053.149c.929,2.609,1.925,5.4,2.975,8.329a35.815,35.815,0,0,0,5.084,9.444c1.375,1.651,2.445,2.958,3.271,4,.958,1.2,1.935,2.545,2.9,4,.9,1.348,1.813,2.754,2.725,4.177a22.629,22.629,0,0,0,3.087,3.814,19.754,19.754,0,0,0,4.541,3.45,27.18,27.18,0,0,1,4.54,3.088,3.869,3.869,0,0,0,2.133.725,3.466,3.466,0,0,0,2.044-.725,30.4,30.4,0,0,0,3.451-2.906,9.07,9.07,0,0,0,2.906-3.994,2.731,2.731,0,0,1,1.452-1.273,7.7,7.7,0,0,0,1.453-.545,3.681,3.681,0,0,0,2.907-3.087,9.674,9.674,0,0,0-.363-4.54,46.66,46.66,0,0,0-1.635-5.266,44.814,44.814,0,0,1-1.634-5.267c-.475-1.878-.891-3.779-1.273-5.811-.351-1.876-.779-3.832-1.27-5.812a24.519,24.519,0,0,1-.363-11.077c.729-3.777,1.34-7.627,1.815-11.443.48-4.1.955-8.076,1.453-12.168.474-3.927,1.085-8.021,1.816-12.167,1.454-7.979,3.165-15.984,5.085-23.791,1.917-7.791,3.505-15.8,4.721-23.791a49.978,49.978,0,0,0,1.091-5.994c.22-1.908.457-3.868.726-5.992a32.576,32.576,0,0,0,.908-5.449,19.736,19.736,0,0,1,1.27-5.448c1.2-3.843,2.547-7.693,4-11.442,1.436-3.706,2.78-7.555,4-11.442,1.22-4.151,2.442-8.123,3.633-11.8s2.405-7.645,3.632-11.8c1.465-6.055,3.346-11.605,5.165-16.973l.011-.032,0-.008,0-.006.006-.02,0-.005,0-.011,0-.014,0-.01,0-.006,0-.013c.516-1.521,1.121-3.311,1.695-5.059a67.109,67.109,0,0,0,2.328-9.857v-.007l0-.008,0-.012v-.006l0-.021,0-.02,0-.012,0-.008,0-.009,0-.012,0-.025a38.592,38.592,0,0,1,1.935-7.795c.713-1.9,1.323-3.79,1.815-5.629.479-1.8.967-3.7,1.454-5.63a16.074,16.074,0,0,1,2.179-5.084,29.35,29.35,0,0,0,2.542-4.721,32.468,32.468,0,0,0,2.18-5.449,21.754,21.754,0,0,1,2.542-5.449c.974-1.465,1.952-3.054,2.907-4.721.459-.918.886-1.713,1.27-2.361a3.866,3.866,0,0,0,.182-2.723c-.867.439-1.56.784-2.179,1.089a6.23,6.23,0,0,0-1.816,1.816l-3.269,4.358a59.784,59.784,0,0,0-3.269,5.085c-.985,1.719-2.085,3.431-3.269,5.087-2.081,3.244-4.342,6.665-6.72,10.17-2.694,3.97-5.139,8.076-6.356,10.17a64.259,64.259,0,0,0-3.165,7.525l0,0,0,.01-.011.03,0,.005,0,.006,0,.011,0,.005-.008.022,0,.009,0,.005,0,.006-.019.049,0,.012,0,.014,0,.012-.009.023,0,.007-.012.032,0,.009,0,.005a88.731,88.731,0,0,1-3.56,8.537c-1.472,2.823-2.4,4.865-3.292,6.84l-.013.029-.007.015,0,.008-.006.014,0,.007-.01.021-.01.023,0,.005,0,.009,0,.007-.01.023-.013.027-.013.028-.006.013-.031.067,0,.005-.007.015-.02.044,0,.011-.058.127,0,.006-.024.053,0,.01,0,.007-.013.029-.022.048,0,.005-.028.061,0,.008c-.3.652-.845,1.864-1.463,3.148-1.69,3.5-3.279,7.23-4.723,11.078a20.293,20.293,0,0,1-2.722,5.086,33.31,33.31,0,0,0-3.088,5.085,60.119,60.119,0,0,0-4.36,10.534c-1.225,4.15-2.507,8.122-3.812,11.8-1.328,3.734-2.856,7.583-4.54,11.442-1.691,3.616-3.218,7.221-4.54,10.715-1.334,3.516-2.617,7.243-3.815,11.078a113.862,113.862,0,0,0-4.721,22.52,158.986,158.986,0,0,1-4,22.519,3.106,3.106,0,0,1-.181.908,4.065,4.065,0,0,0-.182,1.273c-1.211,0-2.127-1.345-2.724-4s-1.033-4.367-1.272-5.085a43.845,43.845,0,0,0-1.815-5.631,22.693,22.693,0,0,1-1.453-5.267,19.372,19.372,0,0,1,.181-2.723,19.341,19.341,0,0,0,.182-2.724,15.289,15.289,0,0,0-.363-5.449,33.214,33.214,0,0,0-1.09-4.9c-.468-1.5-.943-3.107-1.453-4.9a201.222,201.222,0,0,1-6.719-21.067c-1.758-6.79-3.652-14-5.63-21.43-1.936-7.737-4.074-15.559-6.356-23.246-2.316-7.776-4.944-15.475-7.81-22.883-1.151-3.44-2.311-7.106-3.45-10.9a50.96,50.96,0,0,0-4.541-10.534c-1.214-1.69-2.315-3.34-3.27-4.9-1.178-1.9-2.216-3.577-3.268-5.266a42.309,42.309,0,0,1-2-4.721,11.746,11.746,0,0,0-2.724-4.359,3.237,3.237,0,0,0-1.815-.909,13.771,13.771,0,0,1-2.181-.544,4.512,4.512,0,0,1-2.36-.545,9.959,9.959,0,0,0-2-.909A3.929,3.929,0,0,0,181.5,26.923ZM543.441,160.068h0a58.976,58.976,0,0,1,3.27,5.992c.973,2.077,1.951,4.215,2.906,6.355.281.584.943,2.107,1.817,4.179.958,2.289,2.057,4.793,3.267,7.445s2.67,6.079,4.359,10.171c-5.432,2.831-10.32,5.4-14.529,7.627a76.092,76.092,0,0,0-11.078,7.083,54.009,54.009,0,0,0-9.08,9.08,94.633,94.633,0,0,0-8.536,13.258l-.726.727-1.09,3.268a4.573,4.573,0,0,1-.545.909,4.007,4.007,0,0,0-.544.908h.363a38.189,38.189,0,0,0-2.18,12.713v4a27.1,27.1,0,0,0,.363,4.358v1.09a35.019,35.019,0,0,0,5.268,10.9,24.684,24.684,0,0,0,9.626,7.627,14.1,14.1,0,0,0,3.994,1.454,31.382,31.382,0,0,0,4,1.27c1.536.382,2.88.687,4,.908a34.054,34.054,0,0,0,4.057.24c.673,0,1.385-.02,2.117-.059,2.107-.121,4.185-.182,6.176-.182a19.724,19.724,0,0,0,4.357-.364c1.16-.468,2.408-.943,3.815-1.452,1.34-.493,2.588-.968,3.814-1.453a39.261,39.261,0,0,0,10.9-6.176,5.655,5.655,0,0,1,1.452-1.09.607.607,0,0,0,.32-.357,2.125,2.125,0,0,0-.32-1.458l.726-.364a21.113,21.113,0,0,1,2.179-2.905,10.252,10.252,0,0,1,2.181-1.815,1.955,1.955,0,0,1,.725-.909,1.966,1.966,0,0,0,.727-.907,47.811,47.811,0,0,0,2.543-6.175q1.09-3.268,2.178-6.539a32.656,32.656,0,0,0,.908-5.629,12.2,12.2,0,0,1,2-5.63,2.465,2.465,0,0,0,.363-2.361,14.906,14.906,0,0,1-.363-3.087,2.06,2.06,0,0,0-.727-.908c-.245-.119-.364-.416-.364-.908V224.72a62.434,62.434,0,0,0-.363-6.539,20.044,20.044,0,0,0-2.178-9.079,29.4,29.4,0,0,1-2.542-4.359c-.124-.365-.262-.779-.4-1.183l-.021-.064-.1-.287-.068-.206-.018-.054-.016-.049-.112-.333-.114-.342-.127-.382-.015-.045-.023-.072-.027-.081-.006-.019-.027-.082-.173-.52-.019-.058-.006-.02-.023-.068-.006-.019-.022-.065-.046-.137,0-.014-.086-.26c-.657-1.962-1.064-3.184-1.453-4.358l-.364-.364c2.009-.752,4.085-1.484,6.173-2.179a53.04,53.04,0,0,1,7.267-1.817,32.926,32.926,0,0,0,5.81-1.815,50.218,50.218,0,0,0,5.086-2.543,5.688,5.688,0,0,1,1.454-1.09l.725-.363.727-.364a.322.322,0,0,0,.364-.363l.363-.363c.056-.114.113-.214.185-.337l.038-.066a4.708,4.708,0,0,1-.232,1.493l-2.178,11.985A46.115,46.115,0,0,0,605,210.01c.368,4.052.8,8.146,1.273,12.168.185,1.514.407,3.289.658,5.274l0,.028.016.129.029.229.007.062.012.09a48.482,48.482,0,0,0,1.088,5.811c.691,1.608,1.3,3.2,1.816,4.722.488,2.451.964,4.471,1.454,6.175a28.708,28.708,0,0,0,5.449,9.261,62.614,62.614,0,0,0,7.627,7.447,20.453,20.453,0,0,0,4.541,2.905,34.178,34.178,0,0,1,4.539,2.542A25.259,25.259,0,0,1,638.6,269.4a16.241,16.241,0,0,0,5.084,2.18,23.5,23.5,0,0,0,5.72.723,21.379,21.379,0,0,0,5.539-.723c3.595-.954,7.139-2.053,10.534-3.269,3.533-1.176,7.2-2.521,10.9-4a25.718,25.718,0,0,0,9.446-6.539,26.53,26.53,0,0,0,3.268-3.994c.353-.532.727-1.093,1.047-1.572l.17-.256.029-.043.174-.26.275-.413.263-.393.028-.042.025-.039.1-.15.262-.391.037-.056.5-.743a59.911,59.911,0,0,0,5.086-10.533,3.717,3.717,0,0,0,.727-2,3.6,3.6,0,0,1,.724-2,7.127,7.127,0,0,0,1.455-3.632,29.259,29.259,0,0,0,1.089-4.358c.217-1.335.449-2.728.71-4.26l.011-.065.006-.034c.108-.659.219-1.333.314-1.9l.006-.039.022-.13.007-.041.012-.072.112-.671.066-.391.012-.071.012-.068v-.005l.054-.323.048-.284.047-.28.014-.087c.124-.761.287-1.736.494-2.966l.046-.275.037-.219.01-.062.119-.707.022-.129a11.571,11.571,0,0,0,.363-4.9,33.255,33.255,0,0,1-.363-4.9v-5.085a13.455,13.455,0,0,0-.182-2.181,14.477,14.477,0,0,1-.181-2.542h.017a19.026,19.026,0,0,0,3.616-.362q1.013-.2,1.848-.368l.266-.054.45-.09h.005l.184-.037.456-.092.42-.085a26.391,26.391,0,0,0,6.176-1.272,28.505,28.505,0,0,0,5.447-2.725c1.146-.689,2.246-1.3,3.27-1.815a11.478,11.478,0,0,0,2.906-2.18c.4-.4.845-.832,1.354-1.311a56.857,56.857,0,0,0,2.273,10.755c.955,3.829,1.933,7.617,2.906,11.259,1,3.766,1.977,7.554,2.907,11.26.969,4.155,1.763,8.188,2.362,11.986a79.649,79.649,0,0,0,2.724,11.623,22.2,22.2,0,0,0,2,5.266,23.093,23.093,0,0,1,2,5.268l3.269,10.9a22.113,22.113,0,0,0,1.817,4.54,9.833,9.833,0,0,0,3.267,3.451,25.076,25.076,0,0,0,8.719,2.543,21.8,21.8,0,0,0,2.813.18,18.042,18.042,0,0,0,2.633-.18,39.923,39.923,0,0,1,5.45-.363h4.9a35.3,35.3,0,0,0,4.9-.364,8.856,8.856,0,0,0,3.994-1.816,5.526,5.526,0,0,1,1.454-1.089l.676-.337.1-.05.059-.03.061-.031.556-.278a1.724,1.724,0,0,1,.77-.179,2.39,2.39,0,0,1,.864.179,1.569,1.569,0,0,0,.586.122,1.509,1.509,0,0,0,1.048-.485c.729-.486,1.323-1.555,1.817-3.271a47.807,47.807,0,0,0,3.994-9.988c.95-3.462,2.05-6.945,3.269-10.352,1.2-3.379,2.393-6.646,3.633-9.989,1.228-3.319,2.45-6.679,3.633-9.987.506-1.795.932-3.505,1.269-5.085.387-1.791.815-3.5,1.272-5.085.479-1.207.968-2.551,1.453-4,.5-1.494.986-2.838,1.453-4a12.336,12.336,0,0,1,2.18-4.36,12.4,12.4,0,0,0,2.179-4.358c.483-1.686,1.032-3.336,1.634-4.9.692-1.8,1.345-3.526,2-5.267,1.2-3.35,2.54-6.65,4-9.807s2.8-6.459,4-9.806c.741-1.726,1.474-3.376,2.178-4.9a30.156,30.156,0,0,0,1.816-5.266c.51-1.8.938-3.387,1.272-4.722a31.888,31.888,0,0,1,1.634-4.722c.723-1.927,1.457-3.7,2.181-5.266.732-1.585,1.465-3.357,2.179-5.267.5-1,1.111-2.348,1.814-4,.723-1.683.479-3.027-.724-4a2.828,2.828,0,0,0-2.018-1.246,2.054,2.054,0,0,0-1.434.7,10.351,10.351,0,0,0-2.361,3.45c-.7,1.167-1.493,2.389-2.363,3.633-.8,1.134-1.593,2.356-2.361,3.631a43.333,43.333,0,0,0-3.994,9.081,59.178,59.178,0,0,1-3.632,9.08c-1.335,3.115-2.7,6.264-4.178,9.625-1.323,3.01-2.728,6.249-4.176,9.625a80,80,0,0,1-4.9,9.626,80.072,80.072,0,0,0-4.9,9.625c-1.43,3.1-2.958,6.277-4.541,9.444-1.563,3.123-3.09,6.423-4.539,9.807-.919,1.834-1.775,3.606-2.543,5.267-.669,1.45-1.5,3.173-2.543,5.266-.492,1.467-1.043,2.995-1.635,4.541a11.912,11.912,0,0,1-2.724,4.177,7.659,7.659,0,0,1-1.633-4.358,19.871,19.871,0,0,0-.909-4.722c-.476-1.414-.9-2.941-1.271-4.54-.362-1.565-.789-3.093-1.272-4.541-1-3-1.914-5.933-2.724-8.718a71.443,71.443,0,0,1-2-9.079c-.488-3.394-.855-6.938-1.09-10.534a74.317,74.317,0,0,0-1.453-10.534c-.705-3.3-1.56-6.779-2.541-10.352a31.942,31.942,0,0,1-1.09-10.715v-4.9a12.423,12.423,0,0,0-1.09-4.9,14.8,14.8,0,0,0-2.18-3.631,32.347,32.347,0,0,1-2.543-3.633,28.25,28.25,0,0,0-6.176-6.9,31.353,31.353,0,0,0-8.351-4.724c-1.473-.49-3.062-1.04-4.723-1.635a15.414,15.414,0,0,0-5.085-.908,38.944,38.944,0,0,0-7.991,2.179,32.964,32.964,0,0,0-4.357,2.906,13.585,13.585,0,0,1-1.453,1.272,2.408,2.408,0,0,1-1.453.544h-3.451a3.18,3.18,0,0,0-2.724,1.817,9.709,9.709,0,0,0,.363,4.358,14.385,14.385,0,0,1,.545,2.361,12.492,12.492,0,0,0,.545,2.363,37.378,37.378,0,0,1,.363,4.9,17.693,17.693,0,0,0,.727,4.9c.189,1.368.427,2.973.725,4.9a39.1,39.1,0,0,0,1.09,4.9,13.887,13.887,0,0,1,.908,3.269,17.463,17.463,0,0,1,.183,2.179c0,1.717.119,2.668.363,2.907.021.172.041.342.059.511l.043.369.049.425-.149.149-.129.129-.182.182-.725.725-.207.206-.472.471-.115.115-.348.348a26.426,26.426,0,0,0-3.27,3.087,8.253,8.253,0,0,1-3.994,2.362,19.392,19.392,0,0,1-3.815,1.089,31.116,31.116,0,0,0-4.177,1.09,8.022,8.022,0,0,1-3.01.583c-.27,0-.54-.013-.8-.038-1.313-.12-2.718-.181-4.178-.181,0-1.575-.061-3.225-.181-4.905-.128-1.587-.311-3.115-.544-4.541-.245-1.208-.429-2.247-.545-3.087-.124-.857-.308-1.9-.545-3.088-.462-1.823-.889-3.717-1.271-5.629a27.151,27.151,0,0,0-1.633-5.267,91.153,91.153,0,0,0-13.076-18.161c-1.312-1.3-2.5-2.431-3.633-3.451a17.914,17.914,0,0,0-4-2.723l-4.358-2.18c-.755-.5-1.408-.977-2-1.453a6.238,6.238,0,0,0-2.361-1.09,3.425,3.425,0,0,0-2.181,0,6.8,6.8,0,0,1-2.179.364,30.626,30.626,0,0,0-5.448-.364,26.192,26.192,0,0,0-5.449,1.272c-1.678.6-3.511,1.151-5.448,1.635a3.11,3.11,0,0,1-1.737.583,2.4,2.4,0,0,1-.443-.038,3.8,3.8,0,0,0-.681-.059,2.627,2.627,0,0,0-1.135.24,24.475,24.475,0,0,0-4.358,1.815,36.315,36.315,0,0,1-3.633,3.27,14.4,14.4,0,0,1-2.361,1.272,14.7,14.7,0,0,0-2.361,1.27,20.731,20.731,0,0,0-7.809,7.628c-1.77,3.073-3.664,6.128-5.629,9.08a71.815,71.815,0,0,0-5.631,9.626,43.281,43.281,0,0,0-3.451,10.352,11.318,11.318,0,0,0-.306,1.9c-.381.358-.825.817-1.319,1.364a11.356,11.356,0,0,1-4.541,2.906,1.487,1.487,0,0,1-1.09.365c-.961.386-1.76.705-2.738,1.1l-.537.214-.032.013-.325.13a20.2,20.2,0,0,1-3.631,1.09c-1.723.432-3.5.86-5.268,1.271-1.41.323-3.132.739-5.266,1.273a13.115,13.115,0,0,1-3.632.908,13.371,13.371,0,0,0-3.632.908c-2.419-4.592-4.985-9.236-7.628-13.8-2.674-4.609-5.362-9.009-7.99-13.076-.273-.536-.564-1.121-.9-1.8L559.57,160l-.157-.316-.031-.061-.044-.089-.16-.322-.008-.017-.059-.118-.014-.028-.025-.051-.01-.019c-.471-.931-.947-2-1.454-3.27a18.572,18.572,0,0,0-1.089-1.815c-.484-.721-.607-1.21-.364-1.453a12.782,12.782,0,0,1,3.27-4.36,14.794,14.794,0,0,0,3.812-5.629,46.879,46.879,0,0,0,2.361-6.72c.5-1.492,1.049-2.958,1.634-4.359a19.691,19.691,0,0,0,1.272-4.722v-2.9l-.031-.243-.012-.093-.074-.589-.012-.095-.01-.08,0-.01-.084-.665-.007-.059,0-.033,0-.023c-.166-1.316-.327-2.6-.49-3.922a14.45,14.45,0,0,0-2.179-5.812,9.71,9.71,0,0,0-3.63-4.176,43.583,43.583,0,0,0-4.723-2.362,11.683,11.683,0,0,0-3.235-.482,8.446,8.446,0,0,0-1.489.119c-1.5.253-3.211.5-5.084.727a35.509,35.509,0,0,0-5.085,1.453,10.675,10.675,0,0,0-3.994,3.632,18.709,18.709,0,0,0-2.724,4.177c-.593,1.307-1.388,2.835-2.363,4.541a3.218,3.218,0,0,0-.907,1.815,6.8,6.8,0,0,1-.545,1.816,12.2,12.2,0,0,0-.726,2.906c.236,1.712.42,3.362.545,4.9a24.36,24.36,0,0,0,.908,4.9,46.913,46.913,0,0,0,4.359,11.985L531.819,159.7c-.694,1.161-1.489,2.444-2.361,3.813s-1.423,2.294-1.633,2.723c-1.3,3.093-2.639,6.149-4,9.081a30.42,30.42,0,0,1-1.634,4l-.346.694c-.078.157-.157.316-.239.476l-.023.047-.141.283-.346.693,0,.006,0,.005,0,.006-.08.161-.093.184,0,.009-.715,1.43a.062.062,0,0,1,0,.019v.005a.032.032,0,0,0,0,.01c-.09.074-.2.175-.355.328-.716.717-1.081,1.2-1.085,1.447l-.006.006v.045a2.469,2.469,0,0,1-.722,1.772c-1.209,1.928-2.517,4.186-4,6.9a17.113,17.113,0,0,1-5.45,6.175c-.737.5-2.142,2.391-4.176,5.629s-4.308,6.489-6.719,9.626a55.557,55.557,0,0,1-6.9,7.627,4.389,4.389,0,0,1-2.675,1.368c-.85,0-1.539-.583-2.048-1.732a16.813,16.813,0,0,1-1.814-7.628v-7.991c-.264-4.4-.569-8.495-.908-12.168-.354-3.92-.9-8.013-1.635-12.167-.456-3.8-.883-7.892-1.271-12.168-.356-3.908-.784-8-1.273-12.168a32.051,32.051,0,0,1-.906-5.448,15.846,15.846,0,0,0-1.272-5.085,20.363,20.363,0,0,0-2.724-5.085c-1.081-1.44-2.242-2.907-3.451-4.359a43.358,43.358,0,0,0-3.631-4,3.441,3.441,0,0,0-2-.908,16.68,16.68,0,0,0-2.362-.182,38.6,38.6,0,0,0-4.3-.241c-.755,0-1.446.02-2.054.059a20.321,20.321,0,0,0-5.992,1.272,35.259,35.259,0,0,0-5.448,1.816,5.827,5.827,0,0,1-1.936.486,1.339,1.339,0,0,1-.607-.123,11.261,11.261,0,0,1-2.907-3.451,11.423,11.423,0,0,0-2.9-3.451,11.031,11.031,0,0,0-6.783-2.661,9.222,9.222,0,0,0-3.387.663c-3.349,1.315-6.648,2.6-9.806,3.814a31.654,31.654,0,0,1-4.723,1.634,8.62,8.62,0,0,0-4,2.362c-.467.559-.936,1.121-1.4,1.676l-.093.112-.231.277-.165.2-.019.023-.468.561-.555.667-.293.353-.048.058-.36.433c-1.18,1.412-2.4,3-3.633,4.722a115.939,115.939,0,0,0-10.17,21.43,126.187,126.187,0,0,0-5.81,22.883c-.5,4.224-1.052,8.317-1.635,12.166-.478,3.119-.856,6.509-1.125,10.076-1.787,2.806-3.218,5.144-4.5,7.359a92.705,92.705,0,0,1-7.264,10.715c-1.927,2.649-3.576,4.177-4.9,4.541a4.391,4.391,0,0,1-1.17.164,3.94,3.94,0,0,1-2.463-.891,12.761,12.761,0,0,1-3.087-3.814c-.99-1.726-1.968-3.559-2.906-5.449a51.169,51.169,0,0,1-4.54-10.351c-1.1-3.538-2.257-7.143-3.451-10.715-1.2-3.829-1.994-6.7-2.361-8.535s-.795-4.712-1.272-8.537a19.438,19.438,0,0,1,0-10.533c.459-1.85,1.069-3.867,1.815-5.993.743-2.1,1.477-4.112,2.181-5.993,1.2-3.618,2.547-7.284,3.994-10.9,1.431-3.569,2.775-7.358,4-11.26,1.153-3.467,2.437-7.194,3.815-11.078,1.321-3.732,2.6-7.582,3.813-11.442.947-3.563,1.863-7.351,2.724-11.259.835-3.823,1.508-7.734,2-11.623a109.228,109.228,0,0,0,1.453-12.167l.036-.61.024-.4,0-.065.013-.209,0-.026,0-.032.021-.346v-.012l.008-.139.005-.094.049-.818.017-.291.011-.178.008-.14.1-1.717.017-.272.019-.323q.193-3.223.388-6.5c0-1.892-.061-3.786-.182-5.63a32.816,32.816,0,0,0-.908-5.63,86.855,86.855,0,0,0-5.449-10.534,16.553,16.553,0,0,0-6.538-6.9,12.746,12.746,0,0,0-5.63-1.452h-5.629a7.771,7.771,0,0,0-5.085,1.815c-1.52,1.27-2.661,2.221-3.7,3.083l-.181.15-.128.106-.351.293c-1.461,1.223-2.927,2.507-4.359,3.814a29.5,29.5,0,0,0-4,4.541,5.546,5.546,0,0,0-1.09,1.453,79.259,79.259,0,0,1-5.267,11.26,26.637,26.637,0,0,0-3.45,11.623,14.074,14.074,0,0,1-1.453,3.994c-.24,2.389-.424,4.833-.545,7.266-.126,2.394-.309,4.838-.545,7.264-.723,4.078-1.272,8.111-1.634,11.986-.374,4-.679,8.037-.907,11.985a46.675,46.675,0,0,0-.364,5.811v5.812c0,1.429-.061,2.956-.182,4.541s-.181,3.112-.181,4.541a37.84,37.84,0,0,1,1.453,10.352,72.549,72.549,0,0,1-.726,10.351v1.09l.364,2.905c.707,3.283,1.2,6.033,1.452,8.173.235,2,.48,4.751.726,8.172.479,3.353,1.091,6.592,1.817,9.626.713,2.988,1.324,6.1,1.816,9.262a7.968,7.968,0,0,1,.363,2.543v.726l.726,2.179a51.169,51.169,0,0,1,2.542,7.264l2.18,5.449a37.007,37.007,0,0,0,1.815,4,11.477,11.477,0,0,1,.727,3.269c.487,1.707,1.036,3.357,1.633,4.9.56,1.465,1.214,3.068,2,4.9,1.2,3.13,2.363,5.269,3.452,6.357a30,30,0,0,1,4.176,6.357.375.375,0,0,1,.272.093.371.371,0,0,1,.092.27,9.513,9.513,0,0,1,4.359,4.36,4.939,4.939,0,0,0,1.09.908,5.708,5.708,0,0,1,1.09.907,21.879,21.879,0,0,0,5.963,3.289,19.3,19.3,0,0,0,6.434,1.1c.317,0,.668-.009,1.042-.026a16.562,16.562,0,0,0,6.809-1.813,20.373,20.373,0,0,0,5.9-4.725,40.51,40.51,0,0,0,4.541-6.356c1.334-2.312,2.617-4.7,3.814-7.083a23.854,23.854,0,0,0,2.905-5.448,14.2,14.2,0,0,1,2.286-3.993c.261.678.463,1.272.618,1.814v1.452a5.555,5.555,0,0,1,.908,1.09,5.207,5.207,0,0,0,.908,1.09,25.563,25.563,0,0,0,1.634,2.179,13.531,13.531,0,0,1,1.634,2.543,3.979,3.979,0,0,1,1.817,1.453c.387.392.652.582.809.582a.134.134,0,0,0,.1-.038,4.406,4.406,0,0,1,.908-.545,2.283,2.283,0,0,1,.765-.119,3.923,3.923,0,0,1,1.777.482,24.938,24.938,0,0,1,2.542,1.453c3.327,1.664,6.81,3.559,10.352,5.63a17.378,17.378,0,0,0,8.876,2.5,16.858,16.858,0,0,0,2.2-.139,15,15,0,0,0,5.629-1.09,41.8,41.8,0,0,0,5.267-2.543c.993-.5,1.884-.973,2.723-1.453.757-.434,1.648-.909,2.724-1.454a25.005,25.005,0,0,1,1.634-2.179c.593-.713,1.143-1.324,1.634-1.816a22.242,22.242,0,0,1,5.085-4.358v-1.453a12.85,12.85,0,0,1,3.088-5.085,21.744,21.744,0,0,0,3.3-4.437c-.3.777-.131,2.087.509,3.893.723,2.059,1.579,4.259,2.543,6.539.944,2.257,1.921,4.4,2.9,6.356A16.337,16.337,0,0,0,461,247.6a2.03,2.03,0,0,1,.908.727,2.741,2.741,0,0,0,.544.726l1.09,2.18a1.509,1.509,0,0,1,1.09.362c.425.144.9.3,1.5.5l.019.006.282.093.082.027.073.024.065.021.32.107.347.115.083.028.33.11.163.054.059.02.187.062.493.164.208.069.044.015.106.035c.721.241,1.375.46,2.181.727l.055.018.563.188.609.2.057.018.724.241.083.028.089.03a10.761,10.761,0,0,0,2.677.367,6.294,6.294,0,0,0,2.227-.367c1.3-.471,2.824-1.082,4.54-1.816a2.079,2.079,0,0,1,1.513-.579,3.162,3.162,0,0,1,.483.035,16.019,16.019,0,0,0,2.362.182,3.675,3.675,0,0,0,2.362-.727,13.548,13.548,0,0,1,2.361-1.452,67.976,67.976,0,0,0,7.809-6.9,35.054,35.054,0,0,0,5.63-8.355c1.94-3.643,3.834-7.309,5.629-10.9,1.859-3.708,3.753-7.252,5.629-10.533a3.136,3.136,0,0,0,.365-.908,3.674,3.674,0,0,1,.363-.908l.727-1.452a24.841,24.841,0,0,0,2.722-4.722,16.973,16.973,0,0,1,2.725-4.359c0-.245.059-.365.181-.365s.182-.122.182-.363a32.626,32.626,0,0,0,2.906-4.358,46.251,46.251,0,0,0,2.543-6.175c.766-1.774,1.419-3.141,2-4.178.624-1.128,1.33-2.377,2.362-4.177a52.167,52.167,0,0,0,2.543-5.993c.733-2.071,1.71-4.454,2.906-7.083a13.5,13.5,0,0,0,1.09-3.087,13.2,13.2,0,0,1,.669-2.1l.005-.006.007-.007.012-.014a.081.081,0,0,0,.029-.054c0-.12.12-.181.356-.181h.007a6.4,6.4,0,0,1,.726-1.816l1.452-1.088Zm582.585,111.508a26.62,26.62,0,0,1,4.359.363,29.348,29.348,0,0,0,4.722.364,46.713,46.713,0,0,0,9.807-1.09,42.951,42.951,0,0,0,8.9-3.087c2.692-1.287,5.564-2.571,8.536-3.814a38.144,38.144,0,0,1,3.814-2,13.241,13.241,0,0,0,3.815-2.725,23.439,23.439,0,0,0,2.9-3.45,23.439,23.439,0,0,1,2.906-3.452,65.115,65.115,0,0,0,5.813-7.445c1.855-2.794,3.518-5.349,5.084-7.81a16.225,16.225,0,0,0,2.543-3.994c2.624-5.246,4.885-9.707,6.718-13.259.815-1.575,1.724-3.333,2.778-5.373l.12-.234.4-.769.326-.632.271-.525,1.033-2,.7-1.363c1.823-3.53,3.411-6.646,4.721-9.262a4.042,4.042,0,0,1,.545-.908,4.3,4.3,0,0,0,.545-.909,1.048,1.048,0,0,1,.363-.726,33.359,33.359,0,0,0,2.906-4.358c.47-1.176.9-2.276,1.273-3.27a29.781,29.781,0,0,1,1.271-2.905c.741-1.724,1.395-3.09,2-4.177.64-1.155,1.39-2.482,2.36-4.179a52.411,52.411,0,0,0,2.543-5.992c.755-2.13,1.733-4.513,2.906-7.082a25.829,25.829,0,0,0,1.09-3.27,14.1,14.1,0,0,1,1.09-2.905,5.284,5.284,0,0,0-2.543,1.815,6.6,6.6,0,0,0-1.817,1.816c-.524.78-1.026,1.536-1.089,1.634l-.021.031-.343.516-1.411,1.411-.176.175-.048.047-.181.182a14.4,14.4,0,0,1-2.178,1.817,5.862,5.862,0,0,0-1.816,2c-.563.984-1.157,1.994-1.816,3.087a6.219,6.219,0,0,1-1.816,1.816c-.944,1.646-1.922,3.3-2.907,4.9-.966,1.574-1.821,2.857-2.542,3.814-.731,1.227-1.892,3.549-3.451,6.9a66.739,66.739,0,0,1-5.631,9.807,15.021,15.021,0,0,1-2.177,2.906,14.31,14.31,0,0,0-1.816,2.179,9.153,9.153,0,0,1-2,3.088,15.885,15.885,0,0,0-2.361,3.087,36.488,36.488,0,0,1-4.541,6.356c-1.758,2-3.652,4.014-5.63,5.993-2.419,2.9-4.863,5.71-7.264,8.355a43.18,43.18,0,0,1-7.992,6.9,39.243,39.243,0,0,1-6.719,5.448,62.272,62.272,0,0,1-7.445,4c-1.008.247-1.925.43-2.724.545a21.149,21.149,0,0,1-3.087.182,8.381,8.381,0,0,1-6.174-2.18,23.444,23.444,0,0,1-5.813-3.268c-1.218-1.215-2.44-2.5-3.633-3.815a25.153,25.153,0,0,1-3.267-4.541,65.6,65.6,0,0,1-4.9-10.714c-1.344-3.781-2.749-7.508-4.176-11.078a30.252,30.252,0,0,0-1.817-5.266c-.709-1.535-1.442-3.307-2.179-5.267a42.6,42.6,0,0,0-2.362-5.268,22.466,22.466,0,0,1-2-5.266c-.724-3.852-1.274-7.762-1.634-11.623-.358-3.824-.907-7.734-1.633-11.623-.767-4.343-1.5-8.375-2.181-11.987-.73-3.9-1.341-7.931-1.815-11.985,0-2.077-.061-4.093-.182-5.993-.121-1.995-.182-4.011-.182-5.993a54.894,54.894,0,0,0-.363-5.993,55.093,55.093,0,0,1-.364-6.357,33.324,33.324,0,0,1,1.272-11.442,74.8,74.8,0,0,0,2.362-11.442c.536-4.552,1.011-8.472,1.453-11.986.471-3.749,1.081-7.781,1.814-11.984.492-1.724,1.042-3.435,1.635-5.086s1.258-3.357,2-5.085a25.94,25.94,0,0,1,2.543-4.541,8.738,8.738,0,0,1,3.633-3.451,1.966,1.966,0,0,1,.616-.1,2.5,2.5,0,0,1,1.561.646c.7.584,1.31,1.134,1.817,1.634a3.121,3.121,0,0,0,1.453.908,3.312,3.312,0,0,1,1.453.909,5.047,5.047,0,0,1,2.18-.365,60.749,60.749,0,0,0,8.353.909c2.991.131,5.8.314,8.354.545a19.253,19.253,0,0,1,2-.545,16.124,16.124,0,0,0,2-.544,55.433,55.433,0,0,1,5.448-1.09A14.35,14.35,0,0,0,1154,58a32.228,32.228,0,0,0,3.27-3.814,15.276,15.276,0,0,0,2.177-4.177,1.041,1.041,0,0,0,.364-.726,1.054,1.054,0,0,1,.364-.727v-.726c-.245-1.464-.429-2.931-.546-4.359-.12-1.5-.182-2.967-.182-4.358a44.083,44.083,0,0,0-7.082-6.357,23.837,23.837,0,0,0-8.535-3.813,23.573,23.573,0,0,0-6.472-.891,28.193,28.193,0,0,0-4.243.347,93.527,93.527,0,0,0-10.714,2.36,24.219,24.219,0,0,0-9.445,3.633,10.711,10.711,0,0,1-2,1.09,2.812,2.812,0,0,1-1.046.182,5.462,5.462,0,0,1-1.315-.182,6.691,6.691,0,0,1-2.18-1.273c-.74-.611-1.351-1.161-1.816-1.633-2.61-2.135-5.3-4.274-7.991-6.358a41.948,41.948,0,0,0-9.08-5.266,3.909,3.909,0,0,0-.861-.089,2.788,2.788,0,0,0-2.045.815,4.427,4.427,0,0,0-.363,4,26.3,26.3,0,0,0,2,5.448,24.14,24.14,0,0,0,3.088,4.722,42.637,42.637,0,0,1,3.994,3.633c.383.39.8.811,1.453,1.453a4.626,4.626,0,0,1,1.09,1.815c.479,1.208-.315,2.308-2.36,3.27s-3.33,1.82-3.813,2.542a28.137,28.137,0,0,0-6.538,7.628,61.337,61.337,0,0,0-6.9,9.807c-1.883,3.294-3.777,6.715-5.63,10.169A49.082,49.082,0,0,0,1066.46,86.7c-.448,1.787-.875,3.62-1.271,5.448-.34,1.582-.767,3.415-1.272,5.449a37.028,37.028,0,0,1-2,5.812,36.71,36.71,0,0,0-2,5.81,24.757,24.757,0,0,0-.908,5.085c-.127,1.71-.31,3.543-.545,5.449a49.959,49.959,0,0,1-1.091,5.811,23.964,23.964,0,0,0-.725,5.811,103.737,103.737,0,0,0-.726,11.987v11.985c.241,8.478.364,16.727.364,24.518a160.514,160.514,0,0,0,1.814,24.154,109.808,109.808,0,0,0,2.724,11.26c1.153,3.847,2.282,7.53,3.451,11.26a75.419,75.419,0,0,0,4.54,11.259c1.844,3.68,3.738,7.224,5.63,10.533a29.607,29.607,0,0,0,2.543,4.176,31.479,31.479,0,0,0,3.268,3.815,16.646,16.646,0,0,0,4.359,3.087,16.834,16.834,0,0,1,4.361,3.088,25.151,25.151,0,0,0,8.715,5.629,44.72,44.72,0,0,0,10.17,2.723,26.429,26.429,0,0,0,4.36.364,13.509,13.509,0,0,1,4.357.726,15.582,15.582,0,0,1,2.361.183,18.708,18.708,0,0,0,2.363.181,8.589,8.589,0,0,0,2.361-.364A8.627,8.627,0,0,1,1126.026,271.576Zm3.85-56.3c1.344,3.4,2.689,6.987,4,10.654.318.9.715,1.907,1.212,3.07H1155.7c.524-.5.947-.937,1.33-1.362,2.236-2.466,4.52-5.093,6.79-7.808.35-.419.7-.8,1.034-1.133,1.047-1.048,2.085-2.135,3.268-3.421Zm-296.025,0a27.327,27.327,0,0,1-1.521,2.307c-.105.317-.223.637-.349.951-.372.932-.739,1.946-1.093,3.011-.5,1.475-.97,2.8-1.449,4.047-.277.989-.542,2.081-.789,3.247l0,.013,0,.009,0,.01,0,.018,0,.02,0,.007,0,.02-.005.021-.01.042H882l.005-.265,0-.085v-.006l0-.084v-.306c.007-.246.015-.524.015-.806,0-1.967-.054-3.932-.159-5.842-.1-1.854-.167-3.984-.186-6.331Zm-547.589,0-.127.661-.031.161c-.24,1.241-.392,2.044-.525,2.77-.591,3.364-1.107,6.773-1.532,10.132H308.26l-.708-1.774a16.461,16.461,0,0,1-.615-1.839,35.263,35.263,0,0,0-1.689-4.86,15.83,15.83,0,0,1-.583-1.509l-.726-2.178c-.168-.512-.309-1.024-.429-1.564H286.263Zm286.53-114.5a26.76,26.76,0,0,1,7.633,9.012,33.524,33.524,0,0,1,2.318,4.712H884.732c.266-3.189.623-6.434,1.057-9.643a23,23,0,0,1-3.562.94,19.745,19.745,0,0,1-3.472.31,20.424,20.424,0,0,1-6.485-1.065,23.63,23.63,0,0,1-7.533-4.266Zm-187.1,0c-.156,1.059-.327,2.128-.506,3.177-.444,3.446-1.034,7-1.754,10.547H520l.012-.024.016-.035.031-.064.01-.022c.033-.069.064-.134.091-.194a35.188,35.188,0,0,1,4.871-7.693,30.94,30.94,0,0,1,5.562-5.692h-144.9Zm-149.463,0h0c1.245,4.368,2.5,8.985,3.721,13.724H254.47c.585-1.813,1.16-3.678,1.709-5.54l0-.005q.038-.13.078-.259a81.528,81.528,0,0,1,2.938-7.919H236.231Z" transform="translate(427.783 291.093)" fill="#020203"/>
      <path id="Fill_34" data-name="Fill 34" d="M6.9.522a3.456,3.456,0,0,0-4.359.545,6.6,6.6,0,0,0-2.362,4.9C.056,8.031,0,9.91,0,11.6a7.922,7.922,0,0,0,1.453,4.177,15.267,15.267,0,0,1,2.179,3.813A1.073,1.073,0,0,1,4,20.318a17.905,17.905,0,0,0,2.179-2.543,38.792,38.792,0,0,0,2.9-6.537,17.778,17.778,0,0,0,.726-7.265A4.8,4.8,0,0,0,6.9.522" transform="translate(971.952 411.592)" fill="#020203"/>
      <path id="Fill_36" data-name="Fill 36" d="M6.344,0h-.15c-.3,1.812-1.058,5.137-1.586,7.176L0,23.868H12.614L8.081,7.176C7.4,4.834,6.722,2.115,6.344,0" transform="translate(969.36 664.562)" fill="#020203"/>
      <path id="Fill_38" data-name="Fill 38" d="M16.541,9.366C16.541,2.04,11.556,0,6.345,0H0V18.581H6.722c4.91,0,9.819-1.737,9.819-9.215" transform="translate(1479.879 685.258)" fill="#020203"/>
      <path id="Fill_40" data-name="Fill 40" d="M14.729,7.7C14.729.981,10.8,0,6.345,0H0V17.522H4.758c4.381,0,9.971-.981,9.971-9.818" transform="translate(1479.878 662.675)" fill="#020203"/>
      <path id="Fill_42" data-name="Fill 42" d="M6.344,0h-.15c-.3,1.812-1.058,5.137-1.586,7.176L0,23.868H12.614L8.081,7.176C7.4,4.834,6.722,2.115,6.344,0" transform="translate(1204.944 664.562)" fill="#020203"/>
      <path id="Fill_44" data-name="Fill 44" d="M39.227,26.7a11.392,11.392,0,0,0-.363-2.724,6.179,6.179,0,0,1-2.541-.363,52.718,52.718,0,0,1-5.813-1.816,59.853,59.853,0,0,1-5.81-2.542,16.11,16.11,0,0,1-4-2.543,34.281,34.281,0,0,1-9.081-5.449A22.692,22.692,0,0,1,6.9,5.63,23.135,23.135,0,0,0,2.18,0,8.341,8.341,0,0,0,1.09,4.358,36.471,36.471,0,0,1,.727,9.443a35.713,35.713,0,0,0-.363,5.085A44.618,44.618,0,0,1,0,19.976q0,5.093.364,9.808t1.09,9.807Q1.811,42.5,2,45.039t.182,5.448c0,1.453.057,2.906.182,4.358s.181,3.032.181,4.722a29.988,29.988,0,0,0-.363,5.449A13.359,13.359,0,0,1,2,67.195a10.989,10.989,0,0,0-.181,1.816,8.78,8.78,0,0,0,.908,4q.9,1.821,1.635,3.631,1.086,1.822,2,3.633a6.905,6.905,0,0,0,2.725,2.9,30.141,30.141,0,0,1,3.087,1.817,2.919,2.919,0,0,0,3.088.363A24.721,24.721,0,0,0,29.42,73.007,70.065,70.065,0,0,0,35.6,54.845a72.774,72.774,0,0,0,1.09-7.627q.357-3.993,1.09-7.991a2.489,2.489,0,0,1,.181-1.09,2.517,2.517,0,0,0,.182-1.089,35.293,35.293,0,0,0,1.27-3.814,9.712,9.712,0,0,0,.181-4.177,7.35,7.35,0,0,1-.363-2.361" transform="translate(1075.824 460.241)" fill="#020203"/>
      <path id="Fill_46" data-name="Fill 46" d="M15.56,8.61C15.56.226,10.122,0,5.816,0H0V17.975H4.91c5.588,0,10.65-1.283,10.65-9.365" transform="translate(1152.147 662.675)" fill="#020203"/>
      <path id="Fill_48" data-name="Fill 48" d="M8.081,7.176C7.4,4.834,6.722,2.115,6.345,0H6.193c-.3,1.813-1.057,5.137-1.586,7.176L0,23.868H12.613Z" transform="translate(1426.402 664.562)" fill="#020203"/>
      <path id="Fill_50" data-name="Fill 50" d="M50.934,80.569q1.087-1.813,2-3.451A12.27,12.27,0,0,0,54.2,72.941q.357-3.992.363-7.99a44.749,44.749,0,0,0-.727-7.991,18.273,18.273,0,0,1-.726-5.085v-7.81a7.511,7.511,0,0,0-.364-2.36,6.978,6.978,0,0,0-.363-2.18q-.366-1.091-.726-2.18-.365-2.178-.543-4.358a18.913,18.913,0,0,0-.909-4.358,17.213,17.213,0,0,0-3.632-7.992q-1.823-2.178-3.452-4.358t-3.085-4.358q-1.457-1.813-6.721-5.085a53.205,53.205,0,0,0-11.26-5.267A25.121,25.121,0,0,0,11.342.116Q6.617.661,6.62,6.109v4.722a8.355,8.355,0,0,1-.182,1.634,8.3,8.3,0,0,0-.18,1.635v.363a1.617,1.617,0,0,1-.181.726,1.58,1.58,0,0,0-.182.727,6.669,6.669,0,0,0,0,4.358,2.1,2.1,0,0,0-.363,1.453,14.549,14.549,0,0,0-.364,3.995q0,3.636.182,7.265A29.562,29.562,0,0,1,4.8,40.252q-.732,5.447-1.09,10.9t-.726,11.26q-.366,6.537-1.272,13.076T.082,88.923a6.872,6.872,0,0,0,.909,4.359A7.729,7.729,0,0,1,1.9,98a24.6,24.6,0,0,0-.908,5.085Q.8,105.633.446,108.537a32.755,32.755,0,0,0-.364,5.811c0,1.453.727,1.941,2.18,1.453q2.18-.358,4.176-.726a23.685,23.685,0,0,1,4.178-.363,21.091,21.091,0,0,0,9.08-2.907q3.627-1.813,7.084-3.632t6.718-3.631A23.866,23.866,0,0,0,43.3,94.734q1.813-3.625,3.815-7.082t3.814-7.083" transform="translate(1370.67 352.43)" fill="#020203"/>
      <path id="Fill_52" data-name="Fill 52" d="M15.56,8.61C15.56.226,10.122,0,5.816,0H0V17.975H4.91c5.589,0,10.65-1.283,10.65-9.365" transform="translate(1057.052 662.675)" fill="#020203"/>
      <path id="Fill_54" data-name="Fill 54" d="M31.283,19.978q-.366-3.27-.545-6.72A34.03,34.03,0,0,0,29.83,6.9,17.788,17.788,0,0,0,27.652,0Q12.4,7.271,7.31,14.166A54.136,54.136,0,0,0,1.137,25.79a8.569,8.569,0,0,0-.727,6.9A29.286,29.286,0,0,0,3.316,42.5,7.9,7.9,0,0,0,5.5,45.584a4.168,4.168,0,0,0,3.631.909h3.451a17.437,17.437,0,0,0,3.451-.364,22.266,22.266,0,0,0,4.539-1.089A7.8,7.8,0,0,0,24.019,42.5a13.2,13.2,0,0,0,1.272-1.454,13.885,13.885,0,0,1,1.271-1.453,12.01,12.01,0,0,0,3.813-5.63,37.19,37.19,0,0,0,1.271-6.719,12.385,12.385,0,0,0,.182-3.632q-.187-1.814-.545-3.632" transform="translate(961.735 493.656)" fill="#020203"/>
    </g>
  </g>
</svg>
